ISO-10303-21;
HEADER;
FILE_DESCRIPTION(('ViewDefinition [ReferenceView_V1.2]','RevitIdentifiers [ContentGUID: 4708f948-16dc-4771-a6cf-f1da530d6072, VersionGUID: 0f35078c-22c1-4548-ba48-a0fc93ab0b1a, NumberOfSaves: 17]'),'2;1');
FILE_NAME('DISE\X\D1O CHEERS.ifc','2026-01-25T17:42:04-05:00',(''),(''),'ODA SDAI 24.6','Autodesk Revit 24.3.30.11 (ESP) - IFC 24.3.30.11','');
FILE_SCHEMA(('IFC4'));
ENDSEC;

DATA;
#1=IFCORGANIZATION($,'Autodesk Revit 2024 (ESP)',$,$,$);
#2=IFCAPPLICATION(#1,'2024','Autodesk Revit 2024 (ESP)','Revit');
#3=IFCCARTESIANPOINT((0.,0.,0.));
#4=IFCCARTESIANPOINT((0.,0.));
#5=IFCDIRECTION((1.,0.,0.));
#6=IFCDIRECTION((-1.,0.,0.));
#7=IFCDIRECTION((0.,1.,0.));
#8=IFCDIRECTION((0.,-1.,0.));
#9=IFCDIRECTION((0.,0.,1.));
#10=IFCDIRECTION((0.,0.,-1.));
#11=IFCDIRECTION((1.,0.));
#12=IFCDIRECTION((-1.,0.));
#13=IFCDIRECTION((0.,1.));
#14=IFCDIRECTION((0.,-1.));
#15=IFCPERSON($,'','paula.cadena',$,$,$,$,$);
#16=IFCORGANIZATION($,'','',$,$);
#17=IFCPERSONANDORGANIZATION(#15,#16,$);
#18=IFCOWNERHISTORY(#17,#2,$,.NOCHANGE.,$,$,$,1769380630);
#19=IFCSIUNIT(*,.LENGTHUNIT.,$,.METRE.);
#20=IFCAXIS2PLACEMENT3D(#3,$,$);
#21=IFCDIRECTION((6.1230317691118863E-17,1.));
#22=IFCGEOMETRICREPRESENTATIONCONTEXT($,'Model',3,1.0000000000000001E-05,#20,#21);
#23=IFCGEOMETRICREPRESENTATIONSUBCONTEXT('Axis','Model',*,*,*,*,#22,$,.GRAPH_VIEW.,$);
#24=IFCGEOMETRICREPRESENTATIONSUBCONTEXT('Body','Model',*,*,*,*,#22,$,.MODEL_VIEW.,$);
#25=IFCGEOMETRICREPRESENTATIONSUBCONTEXT('Box','Model',*,*,*,*,#22,$,.MODEL_VIEW.,$);
#26=IFCGEOMETRICREPRESENTATIONSUBCONTEXT('FootPrint','Model',*,*,*,*,#22,$,.MODEL_VIEW.,$);
#27=IFCPROJECT('172Fb85jn7SQRFyTgiyf_2',#18,'0001',$,$,'Nombre de proyecto','Estado de proyecto',(#22),#968);
#28=IFCCLASSIFICATION('CSI (Construction Specifications Institute)','1998',$,'Uniformat','UniFormat Classification','https://www.csiresources.org/standards/uniformat',$);
#29=IFCAXIS2PLACEMENT3D(#3,$,$);
#30=IFCLOCALPLACEMENT(#41,#29);
#31=IFCPOSTALADDRESS($,$,$,$,('Introduzca direcci\X\F3n aqu\X\ED'),$,'Madrid','Community','of Madrid','Spain');
#32=IFCBUILDING('172Fb85jn7SQRFyTgiyf_3',#18,'',$,$,#30,$,'',.ELEMENT.,$,$,#31);
#33=IFCAXIS2PLACEMENT3D(#3,$,$);
#34=IFCLOCALPLACEMENT(#30,#33);
#35=IFCBUILDINGSTOREY('29TFpHBYXAnw12nix37b4C',#18,'Nivel 1',$,'Nivel:Nivel 1',#34,$,'Nivel 1',.ELEMENT.,0.);
#36=IFCCARTESIANPOINT((0.,0.,3.));
#37=IFCAXIS2PLACEMENT3D(#36,$,$);
#38=IFCLOCALPLACEMENT(#30,#37);
#39=IFCBUILDINGSTOREY('29TFpHBYXAnw12nix37bGc',#18,'Nivel 2',$,'Nivel:Nivel 1',#38,$,'Nivel 2',.ELEMENT.,2.9999999999999996);
#40=IFCAXIS2PLACEMENT3D(#3,$,$);
#41=IFCLOCALPLACEMENT($,#40);
#42=IFCSITE('172Fb85jn7SQRFyTgiyf_0',#18,'Default',$,$,#41,$,$,.ELEMENT.,(40,25,13,9643),(-3,-42,-20,-772056),0.,$,$);
#43=IFCPROPERTYSINGLEVALUE('Reference',$,IFCIDENTIFIER('Informaci\X\F3n de proyecto'),$);
#44=IFCPROPERTYSET('3mBEclzwyqU9lzV258WFmo',#18,'Pset_SiteCommon',$,(#43));
#45=IFCRELDEFINESBYPROPERTIES('3dKcKJ7co09Kt3_0NeZwl2',#18,$,$,(#42),#44);
#46=IFCSIUNIT(*,.AREAUNIT.,$,.SQUARE_METRE.);
#47=IFCPROPERTYSINGLEVALUE('Categor\X\EDa',$,IFCLABEL('Informaci\X\F3n de proyecto'),$);
#48=IFCPROPERTYSINGLEVALUE('Direcci\X\F3n de proyecto',$,IFCTEXT('Introduzca direcci\X\F3n aqu\X\ED'),$);
#49=IFCPROPERTYSINGLEVALUE('Estado de proyecto',$,IFCTEXT('Estado de proyecto'),$);
#50=IFCPROPERTYSINGLEVALUE('Fecha de emisi\X\F3n de proyecto',$,IFCTEXT('Fecha de emisi\X\F3n'),$);
#51=IFCPROPERTYSINGLEVALUE('Nombre de cliente',$,IFCTEXT('Propietario'),$);
#52=IFCPROPERTYSINGLEVALUE('Nombre de proyecto',$,IFCTEXT('Nombre de proyecto'),$);
#53=IFCPROPERTYSINGLEVALUE('N\X\FAmero de proyecto',$,IFCTEXT('0001'),$);
#54=IFCPROPERTYSET('3_buSjb_JVz6MlvfZHl6qB',#18,'Otra',$,(#47,#48,#49,#50,#51,#52,#53));
#55=IFCCARTESIANPOINT((0.82725437855412876,7.6093504692496543,0.));
#56=IFCAXIS2PLACEMENT3D(#55,$,$);
#57=IFCLOCALPLACEMENT(#34,#56);
#58=IFCCARTESIANPOINTLIST3D(((-4.6195367774282204E-19,0.,0.),(1.9581913872125507,1.0828671292983927E-15,0.)));
#59=IFCINDEXEDPOLYCURVE(#58,$,.F.);
#60=IFCSHAPEREPRESENTATION(#23,'Axis','Curve3D',(#59));
#61=IFCCARTESIANPOINTLIST2D(((1.9581913872125503,0.060000000000001226),(-5.4625673926581382E-17,0.060000000000000435),(5.4625673926581382E-17,-0.060000000000000435),(1.9581913872125507,-0.059999999999999651),(1.9581913872125503,0.060000000000001226)));
#62=IFCINDEXEDPOLYCURVE(#61,$,.F.);
#63=IFCARBITRARYCLOSEDPROFILEDEF(.AREA.,$,#62);
#64=IFCAXIS2PLACEMENT3D(#3,$,$);
#65=IFCEXTRUDEDAREASOLID(#63,#64,#9,1.0799999999999998);
#66=IFCCOLOURRGB($,0.83137254901960789,0.83137254901960789,0.83137254901960789);
#67=IFCSURFACESTYLERENDERING(#66,0.,$,$,$,$,IFCNORMALISEDRATIOMEASURE(0.5),IFCSPECULAREXPONENT(64.),.NOTDEFINED.);
#68=IFCSURFACESTYLE('Muro por defecto',.BOTH.,(#67));
#69=IFCSTYLEDITEM(#65,(#68),$);
#70=IFCSHAPEREPRESENTATION(#24,'Body','SweptSolid',(#65));
#71=IFCPRODUCTDEFINITIONSHAPE($,$,(#60,#70));
#72=IFCWALL('3_Dg$T1ej9bBM9GE2ekQwK',#18,'Muro b\X\E1sico:Por defecto - 12 cm:165498',$,'Muro b\X\E1sico:Por defecto - 12 cm',#57,#71,'165498',.NOTDEFINED.);
#73=IFCQUANTITYLENGTH('Height',$,$,1.0799999999999998,$);
#74=IFCQUANTITYLENGTH('Length',$,$,1.9581913872125507,$);
#75=IFCQUANTITYLENGTH('Width',$,$,0.12,$);
#76=IFCQUANTITYAREA('GrossFootprintArea',$,$,0.23498296646550776,$);
#77=IFCSIUNIT(*,.VOLUMEUNIT.,$,.CUBIC_METRE.);
#78=IFCQUANTITYVOLUME('GrossVolume',$,$,0.2537816037827465,$);
#79=IFCQUANTITYAREA('GrossSideArea',$,$,2.1148466981895542,$);
#80=IFCQUANTITYAREA('NetSideArea',$,$,2.1148466981895537,$);
#81=IFCQUANTITYVOLUME('NetVolume',$,$,0.253781603782746,$);
#82=IFCELEMENTQUANTITY('0i6Pc3OTIIx69G0DtkbWbO',#18,'Qto_WallBaseQuantities',$,$,(#73,#74,#75,#76,#78,#79,#80,#81));
#83=IFCRELDEFINESBYPROPERTIES('04KpZ76QwOAosyuR7Qpub3',#18,$,$,(#72),#82);
#84=IFCMATERIAL('Muro por defecto',$,'Varios');
#85=IFCWALLTYPE('3_Dg$T1ej9bBM9GE2ekQm_',#18,'Muro b\X\E1sico:Por defecto - 12 cm',$,$,(#137,#138,#139,#140,#141),$,'165072',$,.STANDARD.);
#86=IFCPROPERTYSINGLEVALUE('Reference',$,IFCIDENTIFIER('Por defecto - 12 cm'),$);
#87=IFCPROPERTYSET('18pZ7wZNiVoZfh0vHEHygH',#18,'Pset_EnvironmentalImpactIndicators',$,(#86));
#88=IFCPROPERTYSINGLEVALUE('Reference',$,IFCLABEL('Por defecto - 12 cm'),$);
#89=IFCPROPERTYSET('3vjiGhSzsJHIALTijjzqiS',#18,'Pset_ReinforcementBarPitchOfWall',$,(#88));
#90=IFCPROPERTYSINGLEVALUE('IsExternal',$,IFCBOOLEAN(.T.),$);
#91=IFCPROPERTYSINGLEVALUE('LoadBearing',$,IFCBOOLEAN(.F.),$);
#92=IFCPROPERTYSINGLEVALUE('ExtendToStructure',$,IFCBOOLEAN(.F.),$);
#93=IFCPROPERTYSET('0wnw_raHagfns78ngd2Rad',#18,'Pset_WallCommon',$,(#86,#90,#91,#92));
#94=IFCRELDEFINESBYPROPERTIES('1_EBjXRQBn2WN0VxIvJNwK',#18,$,$,(#72),#87);
#95=IFCRELDEFINESBYPROPERTIES('0Xbi$pDD8q055v4FBn2xmi',#18,$,$,(#72),#89);
#96=IFCRELDEFINESBYPROPERTIES('3dwgkHgoTocDnICB1NQCQ4',#18,$,$,(#72),#93);
#97=IFCPROPERTYSINGLEVALUE('Categor\X\EDa',$,IFCLABEL('Muros'),$);
#98=IFCPROPERTYSINGLEVALUE('Familia',$,IFCLABEL('Muro b\X\E1sico'),$);
#99=IFCPROPERTYSINGLEVALUE('Familia y tipo',$,IFCLABEL('Muro b\X\E1sico: Por defecto - 12 cm'),$);
#100=IFCPROPERTYSINGLEVALUE('ID de tipo',$,IFCLABEL('165072'),$);
#101=IFCPROPERTYSINGLEVALUE('Tipo',$,IFCLABEL('Por defecto - 12 cm'),$);
#102=IFCPROPERTYSINGLEVALUE('Altura desconectada',$,IFCLENGTHMEASURE(1.0799999999999998),$);
#103=IFCPROPERTYSINGLEVALUE('Delimitaci\X\F3n de habitaci\X\F3n',$,IFCBOOLEAN(.T.),$);
#104=IFCPROPERTYSINGLEVALUE('Desfase de base',$,IFCLENGTHMEASURE(0.),$);
#105=IFCPROPERTYSINGLEVALUE('Desfase superior',$,IFCLENGTHMEASURE(-1.9199999999999999),$);
#106=IFCPROPERTYSINGLEVALUE('Distancia de extensi\X\F3n de base',$,IFCLENGTHMEASURE(0.),$);
#107=IFCPROPERTYSINGLEVALUE('Distancia de extensi\X\F3n superior',$,IFCLENGTHMEASURE(0.),$);
#108=IFCPROPERTYSINGLEVALUE('La base est\X\E1 enlazada',$,IFCBOOLEAN(.F.),$);
#109=IFCPROPERTYSINGLEVALUE('La parte superior est\X\E1 enlazada',$,IFCBOOLEAN(.F.),$);
#110=IFCPROPERTYSINGLEVALUE('L\X\EDnea de ubicaci\X\F3n',$,IFCIDENTIFIER('Cara de acabado: Interior'),$);
#111=IFCPROPERTYSINGLEVALUE('Relacionado con masa',$,IFCBOOLEAN(.F.),$);
#112=IFCPROPERTYSINGLEVALUE('Restricci\X\F3n de base',$,IFCLABEL('Nivel 1'),$);
#113=IFCPROPERTYSINGLEVALUE('Restricci\X\F3n superior',$,IFCLABEL('Hasta nivel: Nivel 2'),$);
#114=IFCPROPERTYSINGLEVALUE('\X\C1rea',$,IFCAREAMEASURE(2.1148466981895537),$);
#115=IFCPROPERTYSINGLEVALUE('Longitud',$,IFCLENGTHMEASURE(1.8981913872125507),$);
#116=IFCPROPERTYSINGLEVALUE('Volumen',$,IFCVOLUMEMEASURE(0.253781603782746),$);
#117=IFCPROPERTYSINGLEVALUE('Fase de creaci\X\F3n',$,IFCLABEL('Nueva construcci\X\F3n'),$);
#118=IFCPROPERTYSINGLEVALUE('Estructura',$,IFCBOOLEAN(.F.),$);
#119=IFCPROPERTYSINGLEVALUE('Uso estructural',$,IFCIDENTIFIER('No portante'),$);
#120=IFCPROPERTYSINGLEVALUE('Secci\X\F3n transversal',$,IFCIDENTIFIER('Vertical'),$);
#121=IFCPROPERTYSINGLEVALUE('Nombre de familia',$,IFCTEXT('Muro b\X\E1sico'),$);
#122=IFCPROPERTYSINGLEVALUE('Anchura',$,IFCLENGTHMEASURE(0.12),$);
#123=IFCPROPERTYSINGLEVALUE('Envolvente en extremos',$,IFCIDENTIFIER('Ninguno'),$);
#124=IFCPROPERTYSINGLEVALUE('Envolvente en inserciones',$,IFCIDENTIFIER('Sin envolvente'),$);
#125=IFCPROPERTYSINGLEVALUE('Funci\X\F3n',$,IFCIDENTIFIER('Exterior'),$);
#126=IFCPROPERTYSINGLEVALUE('Color de relleno de detalle bajo',$,IFCINTEGER(0),$);
#127=IFCPROPERTYSINGLEVALUE('Nombre de tipo',$,IFCTEXT('Por defecto - 12 cm'),$);
#128=IFCPROPERTYSINGLEVALUE('Nota clave',$,IFCTEXT('Md.1'),$);
#129=IFCPROPERTYSINGLEVALUE('Absortancia',$,IFCREAL(0.70000000000000007),$);
#130=IFCPROPERTYSINGLEVALUE('Aspereza',$,IFCINTEGER(3),$);
#131=IFCPROPERTYSET('3aDmfxexFY4lquDb4AmfDG',#18,'Otra',$,(#97,#98,#99,#100,#101));
#132=IFCPROPERTYSET('0A6YTU1Mb9b5OzSnf0cy57',#18,'Restricciones',$,(#102,#103,#104,#105,#106,#107,#108,#109,#110,#111,#112,#113));
#133=IFCPROPERTYSET('3_4QcarGXzck9FIkH6Zrag',#18,'Cotas',$,(#114,#115,#116));
#134=IFCPROPERTYSET('2egRYU9uUZF8fEwHTIJbx_',#18,'Proceso por fases',$,(#117));
#135=IFCPROPERTYSET('0ui3M_3uX5kWeD9DgButmZ',#18,'Estructura',$,(#118,#119));
#136=IFCPROPERTYSET('0xqowvA9LXXFCYVRWf3wZB',#18,'Definici\X\F3n de secci\X\F3n transversal',$,(#120));
#137=IFCPROPERTYSET('1LbNfTT5fgT8mGmGoxkIXm',#18,'Otra',$,(#97,#121));
#138=IFCPROPERTYSET('19loqnarmvwcTKbLHeOajP',#18,'Construcci\X\F3n',$,(#122,#123,#124,#125));
#139=IFCPROPERTYSET('33nTRrd0VFaCvJNDwg7q$k',#18,'Gr\X\E1ficos',$,(#126));
#140=IFCPROPERTYSET('2pDfoRowSS_kgwdXXDmWq3',#18,'Datos de identidad',$,(#127,#128));
#141=IFCPROPERTYSET('1$ffTOl85Gc5fBS21zTT0D',#18,'Propiedades anal\X\EDticas',$,(#129,#130));
#142=IFCCARTESIANPOINT((2.7254457657666795,7.5493504692496494,0.));
#143=IFCAXIS2PLACEMENT3D(#142,#9,#8);
#144=IFCLOCALPLACEMENT(#34,#143);
#145=IFCCARTESIANPOINTLIST3D(((0.,1.2857836127858157E-16,0.),(3.5362499999997343,-5.4225727070542528E-17,0.)));
#146=IFCINDEXEDPOLYCURVE(#145,$,.F.);
#147=IFCSHAPEREPRESENTATION(#23,'Axis','Curve3D',(#146));
#148=IFCCARTESIANPOINTLIST2D(((3.5362499999997343,0.059999999999999713),(-9.7950627746213514E-17,0.059999999999999894),(9.7950627746213514E-17,-0.059999999999999894),(3.5362499999997343,-0.060000000000000081),(3.5362499999997343,0.059999999999999713)));
#149=IFCINDEXEDPOLYCURVE(#148,$,.F.);
#150=IFCARBITRARYCLOSEDPROFILEDEF(.AREA.,$,#149);
#151=IFCAXIS2PLACEMENT3D(#3,$,$);
#152=IFCEXTRUDEDAREASOLID(#150,#151,#9,1.0799999999999998);
#153=IFCSTYLEDITEM(#152,(#68),$);
#154=IFCSHAPEREPRESENTATION(#24,'Body','SweptSolid',(#152));
#155=IFCPRODUCTDEFINITIONSHAPE($,$,(#147,#154));
#156=IFCWALL('3_Dg$T1ej9bBM9GE2ekQ$j',#18,'Muro b\X\E1sico:Por defecto - 12 cm:165635',$,'Muro b\X\E1sico:Por defecto - 12 cm',#144,#155,'165635',.NOTDEFINED.);
#157=IFCQUANTITYLENGTH('Height',$,$,1.0799999999999998,$);
#158=IFCQUANTITYLENGTH('Length',$,$,3.5362499999997343,$);
#159=IFCQUANTITYLENGTH('Width',$,$,0.12,$);
#160=IFCQUANTITYAREA('GrossFootprintArea',$,$,0.42434999999996736,$);
#161=IFCQUANTITYVOLUME('GrossVolume',$,$,0.45829799999996546,$);
#162=IFCQUANTITYAREA('GrossSideArea',$,$,3.8191499999997123,$);
#163=IFCQUANTITYAREA('NetSideArea',$,$,3.8191499999997123,$);
#164=IFCQUANTITYVOLUME('NetVolume',$,$,0.45829799999996462,$);
#165=IFCELEMENTQUANTITY('19IXj9ghddwOE9yw54Jlnc',#18,'Qto_WallBaseQuantities',$,$,(#157,#158,#159,#160,#161,#162,#163,#164));
#166=IFCRELDEFINESBYPROPERTIES('3reLSyHlGMn7myfS3fGYgW',#18,$,$,(#156),#165);
#167=IFCPROPERTYSET('1XOzdOqUsKVFDVDlvuXrR0',#18,'Pset_EnvironmentalImpactIndicators',$,(#86));
#168=IFCPROPERTYSINGLEVALUE('Reference',$,IFCLABEL('Por defecto - 12 cm'),$);
#169=IFCPROPERTYSET('1ErXxatmn1PhhGL0g1bRjc',#18,'Pset_ReinforcementBarPitchOfWall',$,(#168));
#170=IFCPROPERTYSET('0vI9WOfrFnmNI_2BRkJIYy',#18,'Pset_WallCommon',$,(#86,#90,#91,#92));
#171=IFCRELDEFINESBYPROPERTIES('0SdBLw3h7XkR3752C_0KTG',#18,$,$,(#156),#167);
#172=IFCRELDEFINESBYPROPERTIES('1BJ9wwOmNUFTz7NGLdL8Gn',#18,$,$,(#156),#169);
#173=IFCRELDEFINESBYPROPERTIES('2lxKj_Vr4xSVndnZEBzNI_',#18,$,$,(#156),#170);
#174=IFCPROPERTYSINGLEVALUE('Altura desconectada',$,IFCLENGTHMEASURE(1.0799999999999998),$);
#175=IFCPROPERTYSINGLEVALUE('Desfase superior',$,IFCLENGTHMEASURE(-1.9199999999999999),$);
#176=IFCPROPERTYSINGLEVALUE('\X\C1rea',$,IFCAREAMEASURE(3.8191499999997123),$);
#177=IFCPROPERTYSINGLEVALUE('Longitud',$,IFCLENGTHMEASURE(3.5362499999997339),$);
#178=IFCPROPERTYSINGLEVALUE('Volumen',$,IFCVOLUMEMEASURE(0.45829799999996462),$);
#179=IFCPROPERTYSET('1oAc70cLIonzzCWz4z$WqL',#18,'Otra',$,(#97,#98,#99,#100,#101));
#180=IFCPROPERTYSET('0kG8W3m1qhb$B72ZAZ4byA',#18,'Restricciones',$,(#103,#104,#106,#107,#108,#109,#110,#111,#112,#113,#174,#175));
#181=IFCPROPERTYSET('0cTH_PJk9G3B$965Fy4MYl',#18,'Cotas',$,(#176,#177,#178));
#182=IFCPROPERTYSET('0tYdngSsltSnhESjkizuGd',#18,'Proceso por fases',$,(#117));
#183=IFCPROPERTYSET('3S1i9v1H7dHy1HI_zTdnXa',#18,'Estructura',$,(#118,#119));
#184=IFCPROPERTYSET('1jNUxB7djlN5PMJiYsZm2u',#18,'Definici\X\F3n de secci\X\F3n transversal',$,(#120));
#185=IFCCARTESIANPOINT((-0.81080423423332382,4.0131004692499257,0.));
#186=IFCAXIS2PLACEMENT3D(#185,#9,#7);
#187=IFCLOCALPLACEMENT(#34,#186);
#188=IFCCARTESIANPOINTLIST3D(((0.,5.8744537659761457E-17,0.),(3.6562499999997353,2.7813671677563782E-17,0.)));
#189=IFCINDEXEDPOLYCURVE(#188,$,.F.);
#190=IFCSHAPEREPRESENTATION(#23,'Axis','Curve3D',(#189));
#191=IFCCARTESIANPOINTLIST2D(((3.6562499999997353,0.059999999999999998),(-1.0611318005839804E-16,0.060000000000000032),(1.0611318005839804E-16,-0.060000000000000032),(3.6562499999997353,-0.060000000000000067),(3.6562499999997353,0.059999999999999998)));
#192=IFCINDEXEDPOLYCURVE(#191,$,.F.);
#193=IFCARBITRARYCLOSEDPROFILEDEF(.AREA.,$,#192);
#194=IFCAXIS2PLACEMENT3D(#3,$,$);
#195=IFCEXTRUDEDAREASOLID(#193,#194,#9,1.0799999999999998);
#196=IFCSTYLEDITEM(#195,(#68),$);
#197=IFCSHAPEREPRESENTATION(#24,'Body','SweptSolid',(#195));
#198=IFCPRODUCTDEFINITIONSHAPE($,$,(#190,#197));
#199=IFCWALL('3_Dg$T1ej9bBM9GE2ekQye',#18,'Muro b\X\E1sico:Por defecto - 12 cm:165830',$,'Muro b\X\E1sico:Por defecto - 12 cm',#187,#198,'165830',.NOTDEFINED.);
#200=IFCQUANTITYLENGTH('Height',$,$,1.0799999999999998,$);
#201=IFCQUANTITYLENGTH('Length',$,$,3.6562499999997353,$);
#202=IFCQUANTITYLENGTH('Width',$,$,0.12,$);
#203=IFCQUANTITYAREA('GrossFootprintArea',$,$,0.43874999999996844,$);
#204=IFCQUANTITYVOLUME('GrossVolume',$,$,0.47384999999996552,$);
#205=IFCQUANTITYAREA('GrossSideArea',$,$,3.9487499999997127,$);
#206=IFCQUANTITYAREA('NetSideArea',$,$,3.9487499999997135,$);
#207=IFCQUANTITYVOLUME('NetVolume',$,$,0.47384999999996574,$);
#208=IFCELEMENTQUANTITY('2aETI8U7vvCyFspEVz24Yl',#18,'Qto_WallBaseQuantities',$,$,(#200,#201,#202,#203,#204,#205,#206,#207));
#209=IFCRELDEFINESBYPROPERTIES('0UzmnAxg8Z21W4FOBFmq4U',#18,$,$,(#199),#208);
#210=IFCPROPERTYSET('1Nz5dFnKY$ECZOko_Y8Mpx',#18,'Pset_EnvironmentalImpactIndicators',$,(#86));
#211=IFCPROPERTYSINGLEVALUE('Reference',$,IFCLABEL('Por defecto - 12 cm'),$);
#212=IFCPROPERTYSET('3ggUyuMU04gzf9W5aqQODa',#18,'Pset_ReinforcementBarPitchOfWall',$,(#211));
#213=IFCPROPERTYSET('05K1OAVx$Ap0fhjkGobfOe',#18,'Pset_WallCommon',$,(#86,#90,#91,#92));
#214=IFCRELDEFINESBYPROPERTIES('1URZupwcDRhRO2YRGVdUo7',#18,$,$,(#199),#210);
#215=IFCRELDEFINESBYPROPERTIES('21gCGJUENE8JR8yAUIuBV6',#18,$,$,(#199),#212);
#216=IFCRELDEFINESBYPROPERTIES('15i3Zbk2ezZSEKV3JoMXTF',#18,$,$,(#199),#213);
#217=IFCPROPERTYSINGLEVALUE('Altura desconectada',$,IFCLENGTHMEASURE(1.0799999999999998),$);
#218=IFCPROPERTYSINGLEVALUE('Desfase superior',$,IFCLENGTHMEASURE(-1.9199999999999999),$);
#219=IFCPROPERTYSINGLEVALUE('\X\C1rea',$,IFCAREAMEASURE(3.9487499999997135),$);
#220=IFCPROPERTYSINGLEVALUE('Longitud',$,IFCLENGTHMEASURE(3.5362499999997343),$);
#221=IFCPROPERTYSINGLEVALUE('Volumen',$,IFCVOLUMEMEASURE(0.47384999999996574),$);
#222=IFCPROPERTYSET('2hqA6jZmdFIsAHq7te$IUN',#18,'Otra',$,(#97,#98,#99,#100,#101));
#223=IFCPROPERTYSET('3erDzgT6qC2inPhxwovVLe',#18,'Restricciones',$,(#103,#104,#106,#107,#108,#109,#110,#111,#112,#113,#217,#218));
#224=IFCPROPERTYSET('0FcleMNoKEBWnKYEzwbfF6',#18,'Cotas',$,(#219,#220,#221));
#225=IFCPROPERTYSET('3TMzFD8In1jkzjirbbcfSb',#18,'Proceso por fases',$,(#117));
#226=IFCPROPERTYSET('1jmM5mfL1H_hz8HMaSV2SC',#18,'Estructura',$,(#118,#119));
#227=IFCPROPERTYSET('1Ak_0$MggpdNOqFQa6MR9O',#18,'Definici\X\F3n de secci\X\F3n transversal',$,(#120));
#228=IFCAXIS2PLACEMENT3D(#3,$,$);
#230=IFCCARTESIANPOINTLIST2D(((-0.10000000000000001,1.6155445744325868E-16),(-7.2891243774731036E-16,-0.10000000000000016),(0.10000000000000001,-1.6155445744325866E-16),(1.3934999695075568E-16,0.099999999999999853)));
#231=IFCINDEXEDPOLYCURVE(#230,(IFCARCINDEX((1,2,3)),IFCARCINDEX((3,4,1))),.F.);
#232=IFCARBITRARYCLOSEDPROFILEDEF(.AREA.,'20 cm',#231);
#233=IFCAXIS2PLACEMENT3D(#3,$,$);
#234=IFCEXTRUDEDAREASOLID(#232,#233,#9,2.9999999999999996);
#235=IFCSIUNIT(*,.PLANEANGLEUNIT.,$,.RADIAN.);
#236=IFCDIMENSIONALEXPONENTS(0,0,0,0,0,0,0);
#237=IFCMEASUREWITHUNIT(IFCPLANEANGLEMEASURE(0.017453292519943278),#235);
#238=IFCCONVERSIONBASEDUNIT(#236,.PLANEANGLEUNIT.,'DEGREE',#237);
#239=IFCCOLOURRGB($,0.75294117647058822,0.75294117647058822,0.75294117647058822);
#240=IFCSURFACESTYLERENDERING(#239,0.,$,$,$,$,IFCNORMALISEDRATIOMEASURE(0.5),IFCSPECULAREXPONENT(128.),.NOTDEFINED.);
#241=IFCSURFACESTYLE('Hormig\X\F3n',.BOTH.,(#240));
#242=IFCSTYLEDITEM(#234,(#241),$);
#243=IFCSHAPEREPRESENTATION(#24,'Body','SweptSolid',(#234));
#244=IFCAXIS2PLACEMENT3D(#3,$,$);
#245=IFCREPRESENTATIONMAP(#244,#243);
#246=IFCCOLUMNTYPE('3_Dg$T1ej9bBM9GE2ekRsq',#18,'Pilar Circular:20 cm',$,$,(#293,#294,#295,#296,#297),(#245),'6427',$,.COLUMN.);
#247=IFCMATERIAL('Hormig\X\F3n',$,'Hormig\X\F3n');
#248=IFCCARTESIANTRANSFORMATIONOPERATOR3D($,$,#3,1.,$);
#249=IFCMAPPEDITEM(#245,#248);
#250=IFCSHAPEREPRESENTATION(#24,'Body','MappedRepresentation',(#249));
#251=IFCPRODUCTDEFINITIONSHAPE($,$,(#250));
#252=IFCCARTESIANPOINT((-0.57080423423331839,7.3693504692496603,0.));
#253=IFCAXIS2PLACEMENT3D(#252,$,$);
#254=IFCLOCALPLACEMENT(#34,#253);
#255=IFCCOLUMN('3_Dg$T1ej9bBM9GE2ekRss',#18,'Pilar Circular:20 cm:169304',$,'Pilar Circular:20 cm',#254,#251,'169304',.COLUMN.);
#256=IFCQUANTITYLENGTH('Length',$,$,2.9999999999999996,$);
#257=IFCQUANTITYAREA('CrossSectionArea',$,$,0.031411726131191114,$);
#258=IFCQUANTITYAREA('OuterSurfaceArea',$,$,1.8849555921538723,$);
#259=IFCQUANTITYVOLUME('GrossVolume',$,$,0.094235178393573329,$);
#260=IFCQUANTITYVOLUME('NetVolume',$,$,0.09424330628259979,$);
#261=IFCELEMENTQUANTITY('0YmxbJKkP4_ZaGYBxKHl28',#18,'Qto_ColumnBaseQuantities',$,$,(#256,#257,#258,#259,#260));
#262=IFCRELDEFINESBYPROPERTIES('3OWf$Wc_pM0Dnsh70oQiSv',#18,$,$,(#255),#261);
#263=IFCPROPERTYSINGLEVALUE('Reference',$,IFCIDENTIFIER('20 cm'),$);
#264=IFCPROPERTYSINGLEVALUE('IsExternal',$,IFCBOOLEAN(.F.),$);
#265=IFCPROPERTYSET('3s_2rY0vsuVrttr5mLITqo',#18,'Pset_ColumnCommon',$,(#263,#264));
#266=IFCPROPERTYSET('1NFjVwekjtSvpTu9oAgXl3',#18,'Pset_EnvironmentalImpactIndicators',$,(#263));
#267=IFCPROPERTYSINGLEVALUE('Reference',$,IFCLABEL('20 cm'),$);
#268=IFCPROPERTYSET('0GUvoEwVVYUgKE4vpTF5c6',#18,'Pset_ReinforcementBarPitchOfColumn',$,(#267));
#269=IFCRELDEFINESBYPROPERTIES('1tg0fZBO$iKdE7WFVeZaQZ',#18,$,$,(#255),#265);
#270=IFCRELDEFINESBYPROPERTIES('3lxWyKvecGAIu6yYhMxCuJ',#18,$,$,(#255),#266);
#271=IFCRELDEFINESBYPROPERTIES('0$SR_giCtmXDbbvfWFxebF',#18,$,$,(#255),#268);
#272=IFCPROPERTYSINGLEVALUE('Categor\X\EDa',$,IFCLABEL('Pilares'),$);
#273=IFCPROPERTYSINGLEVALUE('Familia',$,IFCLABEL('Pilar Circular'),$);
#274=IFCPROPERTYSINGLEVALUE('Familia y tipo',$,IFCLABEL('Pilar Circular: 20 cm'),$);
#275=IFCPROPERTYSINGLEVALUE('ID de tipo',$,IFCLABEL('6427'),$);
#276=IFCPROPERTYSINGLEVALUE('Tipo',$,IFCLABEL('20 cm'),$);
#277=IFCPROPERTYSINGLEVALUE('Desfase superior',$,IFCLENGTHMEASURE(0.),$);
#278=IFCPROPERTYSINGLEVALUE('Nivel',$,IFCLABEL('Nivel 1'),$);
#279=IFCPROPERTYSINGLEVALUE('Nivel base',$,IFCLABEL('Nivel 1'),$);
#280=IFCPROPERTYSINGLEVALUE('Nivel superior',$,IFCLABEL('Nivel 2'),$);
#281=IFCPROPERTYSINGLEVALUE('Se mueve con rejillas',$,IFCBOOLEAN(.T.),$);
#282=IFCPROPERTYSINGLEVALUE('Volumen',$,IFCVOLUMEMEASURE(0.09424330628259979),$);
#283=IFCPROPERTYSINGLEVALUE('Nombre de familia',$,IFCTEXT('Pilar Circular'),$);
#284=IFCPROPERTYSINGLEVALUE('Radio',$,IFCLENGTHMEASURE(0.10000000000000001),$);
#285=IFCPROPERTYSINGLEVALUE('Di\X\E1metro',$,IFCLENGTHMEASURE(0.20000000000000001),$);
#286=IFCPROPERTYSINGLEVALUE('Patr\X\F3n de relleno de detalle bajo',$,IFCLABEL('Ret\X\EDculo 1 mm'),$);
#287=IFCPROPERTYSINGLEVALUE('Nombre de tipo',$,IFCTEXT('20 cm'),$);
#288=IFCPROPERTYSINGLEVALUE('Nota clave',$,IFCTEXT('P.2.1'),$);
#289=IFCPROPERTYSET('08Q822ZQukF4FMd9czwTdN',#18,'Otra',$,(#272,#273,#274,#275,#276));
#290=IFCPROPERTYSET('22SJfoeb$lK3Wi4_012idt',#18,'Restricciones',$,(#103,#104,#277,#278,#279,#280,#281));
#291=IFCPROPERTYSET('0vfpnsMyGxfFRpHuILgZzj',#18,'Cotas',$,(#282));
#292=IFCPROPERTYSET('3c5NgEL8jOpTES25YoOpxT',#18,'Proceso por fases',$,(#117));
#293=IFCPROPERTYSET('26uP5fxm0JEcbVPkwHEgtK',#18,'Otra',$,(#272,#283));
#294=IFCPROPERTYSET('3_UTRmXObpu9OpBt2$iqmJ',#18,'Restricciones',$,(#284));
#295=IFCPROPERTYSET('1VYtAiEHo5dervNYRLWrGa',#18,'Cotas',$,(#285));
#296=IFCPROPERTYSET('1ga56v0C7gVpcS1JEVsqxa',#18,'Gr\X\E1ficos',$,(#126,#286));
#297=IFCPROPERTYSET('3J_ZyzLae8cdsLSJkzJzqQ',#18,'Datos de identidad',$,(#287,#288));
#298=IFCMAPPEDITEM(#245,#248);
#299=IFCSHAPEREPRESENTATION(#24,'Body','MappedRepresentation',(#298));
#300=IFCPRODUCTDEFINITIONSHAPE($,$,(#299));
#301=IFCCARTESIANPOINT((2.4854457657666789,7.3693504692496505,0.));
#302=IFCAXIS2PLACEMENT3D(#301,$,$);
#303=IFCLOCALPLACEMENT(#34,#302);
#304=IFCCOLUMN('0uhqhwgvvC4RLW3AFcQlMa',#18,'Pilar Circular:20 cm:169450',$,'Pilar Circular:20 cm',#303,#300,'169450',.COLUMN.);
#305=IFCQUANTITYLENGTH('Length',$,$,2.9999999999999996,$);
#306=IFCQUANTITYAREA('CrossSectionArea',$,$,0.031411726131191114,$);
#307=IFCQUANTITYAREA('OuterSurfaceArea',$,$,1.8849555921538723,$);
#308=IFCQUANTITYVOLUME('GrossVolume',$,$,0.094235178393573329,$);
#309=IFCQUANTITYVOLUME('NetVolume',$,$,0.09424330628259979,$);
#310=IFCELEMENTQUANTITY('1kzVRTH9NLo0NLFwtnkUFE',#18,'Qto_ColumnBaseQuantities',$,$,(#305,#306,#307,#308,#309));
#311=IFCRELDEFINESBYPROPERTIES('0xHWgqQ39gmPZUWQIIy_42',#18,$,$,(#304),#310);
#312=IFCPROPERTYSET('1UvDoPucedESPDvJ9IyG3g',#18,'Pset_ColumnCommon',$,(#263,#264));
#313=IFCPROPERTYSET('1uGJVXQMzi60sE$i$5FEAz',#18,'Pset_EnvironmentalImpactIndicators',$,(#263));
#314=IFCPROPERTYSINGLEVALUE('Reference',$,IFCLABEL('20 cm'),$);
#315=IFCPROPERTYSET('0br1qDlQDo7gsEZzMDFWO5',#18,'Pset_ReinforcementBarPitchOfColumn',$,(#314));
#316=IFCRELDEFINESBYPROPERTIES('3GzGkxIF5$SKut0NcLiqsZ',#18,$,$,(#304),#312);
#317=IFCRELDEFINESBYPROPERTIES('34CAJ2CyGDrgGS8UQoOLlk',#18,$,$,(#304),#313);
#318=IFCRELDEFINESBYPROPERTIES('37H8yPB0Q2tDXChZbr4k4i',#18,$,$,(#304),#315);
#319=IFCPROPERTYSINGLEVALUE('Volumen',$,IFCVOLUMEMEASURE(0.09424330628259979),$);
#320=IFCPROPERTYSET('0Th_yalHC5$2R95PQ3Bjii',#18,'Otra',$,(#272,#273,#274,#275,#276));
#321=IFCPROPERTYSET('1hXOUnotRmaCtXlJAqa0LI',#18,'Restricciones',$,(#103,#104,#277,#278,#279,#280,#281));
#322=IFCPROPERTYSET('2qjbMJuPkFpB3QrlrW3Fst',#18,'Cotas',$,(#319));
#323=IFCPROPERTYSET('19Qo64kF3iQujehWIiIHnw',#18,'Proceso por fases',$,(#117));
#324=IFCAXIS2PLACEMENT3D(#3,$,$);
#326=IFCCARTESIANPOINTLIST2D(((-0.10000000000000001,5.4143356464919637E-16),(-5.4143356464919637E-16,-0.10000000000000001),(0.10000000000000001,0.),(0.,0.10000000000000001)));
#327=IFCINDEXEDPOLYCURVE(#326,(IFCARCINDEX((1,2,3)),IFCARCINDEX((3,4,1))),.F.);
#328=IFCARBITRARYCLOSEDPROFILEDEF(.AREA.,'20 cm',#327);
#329=IFCCARTESIANPOINT((2.485445765766674,4.3131004692499166,0.));
#330=IFCAXIS2PLACEMENT3D(#329,$,$);
#331=IFCEXTRUDEDAREASOLID(#328,#330,#9,2.9999999999999996);
#332=IFCSTYLEDITEM(#331,(#241),$);
#333=IFCSHAPEREPRESENTATION(#24,'Body','SweptSolid',(#331));
#334=IFCAXIS2PLACEMENT3D(#3,$,$);
#335=IFCREPRESENTATIONMAP(#334,#333);
#336=IFCCOLUMNTYPE('0uhqhwgvvC4RLW1AFcQlMw',#18,'Pilar Circular:20 cm',$,$,(#293,#294,#295,#296,#297),(#335),'6427',$,.COLUMN.);
#337=IFCMAPPEDITEM(#335,#248);
#338=IFCSHAPEREPRESENTATION(#24,'Body','MappedRepresentation',(#337));
#339=IFCPRODUCTDEFINITIONSHAPE($,$,(#338));
#340=IFCAXIS2PLACEMENT3D(#3,$,$);
#341=IFCLOCALPLACEMENT(#34,#340);
#342=IFCCOLUMN('0uhqhwgvvC4RLW3AFcQlMw',#18,'Pilar Circular:20 cm:169460',$,'Pilar Circular:20 cm',#341,#339,'169460',.COLUMN.);
#343=IFCQUANTITYLENGTH('Length',$,$,2.9999999999999996,$);
#344=IFCQUANTITYAREA('CrossSectionArea',$,$,0.031411726131191135,$);
#345=IFCQUANTITYAREA('OuterSurfaceArea',$,$,1.8849555921538723,$);
#346=IFCQUANTITYVOLUME('GrossVolume',$,$,0.094235178393573399,$);
#347=IFCQUANTITYVOLUME('NetVolume',$,$,0.09424330628259979,$);
#348=IFCELEMENTQUANTITY('1elvzqiZgiX4XfvuPC7mAf',#18,'Qto_ColumnBaseQuantities',$,$,(#343,#344,#345,#346,#347));
#349=IFCRELDEFINESBYPROPERTIES('2Ne_V3M7cBfM35Xn5jJAQB',#18,$,$,(#342),#348);
#350=IFCPROPERTYSET('1S1olcehBclx3cnJ$F_Yxe',#18,'Pset_ColumnCommon',$,(#263,#264));
#351=IFCPROPERTYSET('3Jw0QeESyL8G7AwnilJNkb',#18,'Pset_EnvironmentalImpactIndicators',$,(#263));
#352=IFCPROPERTYSINGLEVALUE('Reference',$,IFCLABEL('20 cm'),$);
#353=IFCPROPERTYSET('3VHGiK4i_JFs_rd7v9tQG4',#18,'Pset_ReinforcementBarPitchOfColumn',$,(#352));
#354=IFCRELDEFINESBYPROPERTIES('0ePM5J5cqLQIFXrVnz7BXA',#18,$,$,(#342),#350);
#355=IFCRELDEFINESBYPROPERTIES('0BJ7PlyLUELmtd3LL16h_U',#18,$,$,(#342),#351);
#356=IFCRELDEFINESBYPROPERTIES('3jN$VNp_yZyZUtv2s7N2il',#18,$,$,(#342),#353);
#357=IFCPROPERTYSINGLEVALUE('Volumen',$,IFCVOLUMEMEASURE(0.09424330628259979),$);
#358=IFCPROPERTYSET('2VMR2FKYGpJPvHkUdBb92E',#18,'Otra',$,(#272,#273,#274,#275,#276));
#359=IFCPROPERTYSET('3HkMWRjr92NbZKoom7Esxp',#18,'Restricciones',$,(#103,#104,#277,#278,#279,#280,#281));
#360=IFCPROPERTYSET('2sX23wELa_qQbVNZ8ETy$K',#18,'Cotas',$,(#357));
#361=IFCPROPERTYSET('3W8ybFLGP6kM1F4q3IC2Px',#18,'Proceso por fases',$,(#117));
#362=IFCMAPPEDITEM(#245,#248);
#363=IFCSHAPEREPRESENTATION(#24,'Body','MappedRepresentation',(#362));
#364=IFCPRODUCTDEFINITIONSHAPE($,$,(#363));
#365=IFCCARTESIANPOINT((-0.57080423423332327,4.3131004692499264,0.));
#366=IFCAXIS2PLACEMENT3D(#365,$,$);
#367=IFCLOCALPLACEMENT(#34,#366);
#368=IFCCOLUMN('0uhqhwgvvC4RLW3AFcQlMm',#18,'Pilar Circular:20 cm:169470',$,'Pilar Circular:20 cm',#367,#364,'169470',.COLUMN.);
#369=IFCQUANTITYLENGTH('Length',$,$,2.9999999999999996,$);
#370=IFCQUANTITYAREA('CrossSectionArea',$,$,0.031411726131191114,$);
#371=IFCQUANTITYAREA('OuterSurfaceArea',$,$,1.8849555921538723,$);
#372=IFCQUANTITYVOLUME('GrossVolume',$,$,0.094235178393573329,$);
#373=IFCQUANTITYVOLUME('NetVolume',$,$,0.09424330628259979,$);
#374=IFCELEMENTQUANTITY('11zEzWPtv6ytPLEXe_vGWY',#18,'Qto_ColumnBaseQuantities',$,$,(#369,#370,#371,#372,#373));
#375=IFCRELDEFINESBYPROPERTIES('3nwZ3zhAveCVQiQ1B2x9EM',#18,$,$,(#368),#374);
#376=IFCPROPERTYSET('0WQ6tgR6I0vV6KKedwKvfo',#18,'Pset_ColumnCommon',$,(#263,#264));
#377=IFCPROPERTYSET('2VJlA73yP3e5SL9nnR4mA7',#18,'Pset_EnvironmentalImpactIndicators',$,(#263));
#378=IFCPROPERTYSINGLEVALUE('Reference',$,IFCLABEL('20 cm'),$);
#379=IFCPROPERTYSET('0$w5lbD1RoAxSW4DLNq2fz',#18,'Pset_ReinforcementBarPitchOfColumn',$,(#378));
#380=IFCRELDEFINESBYPROPERTIES('2oihixDjsvSghW1nxsX0S4',#18,$,$,(#368),#376);
#381=IFCRELDEFINESBYPROPERTIES('1Vi9eSij6ZYxDKqxulKHqo',#18,$,$,(#368),#377);
#382=IFCRELDEFINESBYPROPERTIES('2cnkWH9s9cHzenYyNYoVSU',#18,$,$,(#368),#379);
#383=IFCPROPERTYSINGLEVALUE('Volumen',$,IFCVOLUMEMEASURE(0.09424330628259979),$);
#384=IFCPROPERTYSET('3QivjhA20dj_Ajbp_ob4qE',#18,'Otra',$,(#272,#273,#274,#275,#276));
#385=IFCPROPERTYSET('2EVmJW5JLmp3bu4z5mSuIc',#18,'Restricciones',$,(#103,#104,#277,#278,#279,#280,#281));
#386=IFCPROPERTYSET('2D01Rf9bR0_AH$mhr5eJES',#18,'Cotas',$,(#383));
#387=IFCPROPERTYSET('3MUt0UEX1LyIk968RyzJy$',#18,'Proceso por fases',$,(#117));
#388=IFCCARTESIANPOINT((-0.75080423423331755,7.6093504692496605,0.));
#389=IFCAXIS2PLACEMENT3D(#388,$,$);
#390=IFCLOCALPLACEMENT(#34,#389);
#391=IFCCARTESIANPOINTLIST3D(((-4.6195367776590479E-19,0.,0.),(0.67805861278744695,0.,0.)));
#392=IFCINDEXEDPOLYCURVE(#391,$,.F.);
#393=IFCSHAPEREPRESENTATION(#23,'Axis','Curve3D',(#392));
#394=IFCCARTESIANPOINTLIST2D(((0.67805861278744683,0.060000000000000421),(-1.8998406508888048E-16,0.060000000000000435),(1.8998406508888048E-16,-0.060000000000000435),(0.67805861278744706,-0.060000000000000456),(0.67805861278744683,0.060000000000000421)));
#395=IFCINDEXEDPOLYCURVE(#394,$,.F.);
#396=IFCARBITRARYCLOSEDPROFILEDEF(.AREA.,$,#395);
#397=IFCAXIS2PLACEMENT3D(#3,$,$);
#398=IFCEXTRUDEDAREASOLID(#396,#397,#9,1.0799999999999998);
#399=IFCSTYLEDITEM(#398,(#68),$);
#400=IFCSHAPEREPRESENTATION(#24,'Body','SweptSolid',(#398));
#401=IFCPRODUCTDEFINITIONSHAPE($,$,(#393,#400));
#402=IFCWALL('0uhqhwgvvC4RLW3AFcQlgP',#18,'Muro b\X\E1sico:Por defecto - 12 cm:170711',$,'Muro b\X\E1sico:Por defecto - 12 cm',#390,#401,'170711',.NOTDEFINED.);
#403=IFCQUANTITYLENGTH('Height',$,$,1.0799999999999998,$);
#404=IFCQUANTITYLENGTH('Length',$,$,0.67805861278744695,$);
#405=IFCQUANTITYLENGTH('Width',$,$,0.12,$);
#406=IFCQUANTITYAREA('GrossFootprintArea',$,$,0.081367033534494218,$);
#407=IFCQUANTITYVOLUME('GrossVolume',$,$,0.087876396217253072,$);
#408=IFCQUANTITYAREA('GrossSideArea',$,$,0.73230330181044223,$);
#409=IFCQUANTITYAREA('NetSideArea',$,$,0.73230330181044245,$);
#410=IFCQUANTITYVOLUME('NetVolume',$,$,0.087876396217252919,$);
#411=IFCELEMENTQUANTITY('23IYDSR6wjBo57848hdx54',#18,'Qto_WallBaseQuantities',$,$,(#403,#404,#405,#406,#407,#408,#409,#410));
#412=IFCRELDEFINESBYPROPERTIES('2dS9J70UYFnRIRLlY9TsSp',#18,$,$,(#402),#411);
#413=IFCPROPERTYSET('08ay39pFSUZuIgRC3FobdE',#18,'Pset_EnvironmentalImpactIndicators',$,(#86));
#414=IFCPROPERTYSINGLEVALUE('Reference',$,IFCLABEL('Por defecto - 12 cm'),$);
#415=IFCPROPERTYSET('1lOwkWsRyN7WxnhsJJtn6M',#18,'Pset_ReinforcementBarPitchOfWall',$,(#414));
#416=IFCPROPERTYSET('0ICM$3ZEdtiwTuUkzV5qnq',#18,'Pset_WallCommon',$,(#86,#90,#91,#92));
#417=IFCRELDEFINESBYPROPERTIES('21GCcksUn4wllXHvwX96ci',#18,$,$,(#402),#413);
#418=IFCRELDEFINESBYPROPERTIES('1mUg8BowLHcrgFW$oy44_r',#18,$,$,(#402),#415);
#419=IFCRELDEFINESBYPROPERTIES('1bBgJhZEJM9g1nBVV$A76w',#18,$,$,(#402),#416);
#420=IFCPROPERTYSINGLEVALUE('Altura desconectada',$,IFCLENGTHMEASURE(1.0799999999999998),$);
#421=IFCPROPERTYSINGLEVALUE('Desfase superior',$,IFCLENGTHMEASURE(-1.9199999999999999),$);
#422=IFCPROPERTYSINGLEVALUE('\X\C1rea',$,IFCAREAMEASURE(0.73230330181044245),$);
#423=IFCPROPERTYSINGLEVALUE('Longitud',$,IFCLENGTHMEASURE(0.73805861278744678),$);
#424=IFCPROPERTYSINGLEVALUE('Volumen',$,IFCVOLUMEMEASURE(0.087876396217252919),$);
#425=IFCPROPERTYSET('1BR2co_Zim$EErSzXlLL_l',#18,'Otra',$,(#97,#98,#99,#100,#101));
#426=IFCPROPERTYSET('3vwp2iv$lDWNEAiyUJkdKp',#18,'Restricciones',$,(#103,#104,#106,#107,#108,#109,#110,#111,#112,#113,#420,#421));
#427=IFCPROPERTYSET('00OFy3QkpW9w7C589tgQAV',#18,'Cotas',$,(#422,#423,#424));
#428=IFCPROPERTYSET('1LtmobyOtOsDKTv$a25XWv',#18,'Proceso por fases',$,(#117));
#429=IFCPROPERTYSET('0icoPAQnSlgNjKjNrQQ5uo',#18,'Estructura',$,(#118,#119));
#430=IFCPROPERTYSET('15cW3TNd9fbPYjAAzHV2dt',#18,'Definici\X\F3n de secci\X\F3n transversal',$,(#120));
#431=IFCAXIS2PLACEMENT3D(#3,$,$);
#433=IFCCARTESIANPOINTLIST2D(((-2.2081249999998698,-1.3853622904094138),(-1.7081249999998687,-1.3853622904094138),(-1.7081249999998656,0.45282909680313704),(1.7081249999998689,0.45282909680313621),(1.7081249999998678,-0.020295903196860175),(2.2081249999998671,-0.02029590319686031),(2.2081249999998693,0.95282909680313588),(-2.2081249999998653,0.95282909680313699),(-2.2081249999998698,-1.3853622904094138)));
#434=IFCINDEXEDPOLYCURVE(#433,$,.F.);
#435=IFCARBITRARYCLOSEDPROFILEDEF(.AREA.,'Meson',#434);
#436=IFCCARTESIANPOINT((2.2126166689635403,5.8412254692497845,1.0799999999999994));
#437=IFCAXIS2PLACEMENT3D(#436,#9,#8);
#438=IFCEXTRUDEDAREASOLID(#435,#437,#9,0.020000000000000056);
#439=IFCCARTESIANPOINTLIST2D(((-0.51526270959058051,-2.2081249999998671),(0.66279590319686799,-2.2081249999998671),(0.66279590319685888,2.2081249999998684),(-0.31032909680314491,2.2081249999998684),(-0.31032909680314391,1.7081249999998684),(0.16279590319685858,1.7081249999998684),(0.16279590319686563,-1.7081249999998667),(-0.51526270959058151,-1.7081249999998669),(-0.51526270959058051,-2.2081249999998671)));
#440=IFCINDEXEDPOLYCURVE(#439,$,.F.);
#441=IFCARBITRARYCLOSEDPROFILEDEF(.AREA.,'Meson',#440);
#442=IFCCARTESIANPOINT((-0.58800833103645878,5.8412254692497942,1.0799999999999994));
#443=IFCAXIS2PLACEMENT3D(#442,#9,#6);
#444=IFCEXTRUDEDAREASOLID(#441,#443,#9,0.020000000000000056);
#445=IFCCOLOURRGB($,0.40784313725490196,0.40784313725490196,0.40392156862745099);
#446=IFCSURFACESTYLERENDERING(#445,0.,$,$,$,$,IFCNORMALISEDRATIOMEASURE(0.5),IFCSPECULAREXPONENT(128.),.NOTDEFINED.);
#447=IFCSURFACESTYLE('Piedra - pizarra',.BOTH.,(#446));
#448=IFCSTYLEDITEM(#438,(#447),$);
#449=IFCSTYLEDITEM(#444,(#447),$);
#450=IFCSHAPEREPRESENTATION(#24,'Body','SweptSolid',(#438,#444));
#451=IFCAXIS2PLACEMENT3D(#3,$,$);
#452=IFCREPRESENTATIONMAP(#451,#450);
#453=IFCFURNITURETYPE('0XHSDbx1rF4x3SKgwH5UsO',#18,'Meson:Meson',$,$,(#480,#481),(#452),'179067',$,.NOTDEFINED.,.NOTDEFINED.);
#454=IFCMATERIAL('Piedra - pizarra',$,'Piedra');
#455=IFCMAPPEDITEM(#452,#248);
#456=IFCSHAPEREPRESENTATION(#24,'Body','MappedRepresentation',(#455));
#457=IFCPRODUCTDEFINITIONSHAPE($,$,(#456));
#458=IFCAXIS2PLACEMENT3D(#3,$,$);
#459=IFCLOCALPLACEMENT(#34,#458);
#460=IFCFURNITURE('0XHSDbx1rF4x3SKgwH5UsU',#18,'Meson:Meson:179069',$,'Meson:Meson',#459,#457,'179069',.NOTDEFINED.);
#461=IFCPROPERTYSINGLEVALUE('Reference',$,IFCIDENTIFIER('Meson'),$);
#462=IFCPROPERTYSET('3fhCpza9NtCt8_c0lS$3DN',#18,'Pset_EnvironmentalImpactIndicators',$,(#461));
#463=IFCPROPERTYSET('25yNFWqtafDBT8ESyQn_jB',#18,'Pset_FurnitureTypeCommon',$,(#461));
#464=IFCRELDEFINESBYPROPERTIES('2NDN5O7$Mghil0uVSCxOCK',#18,$,$,(#460),#462);
#465=IFCRELDEFINESBYPROPERTIES('0Xrt8TCX0Ox8o194UvvHjd',#18,$,$,(#460),#463);
#466=IFCPROPERTYSINGLEVALUE('Categor\X\EDa',$,IFCLABEL('Muebles de obra'),$);
#467=IFCPROPERTYSINGLEVALUE('Familia',$,IFCLABEL('Meson'),$);
#468=IFCPROPERTYSINGLEVALUE('Familia y tipo',$,IFCLABEL('Meson: Meson'),$);
#469=IFCPROPERTYSINGLEVALUE('ID de tipo',$,IFCLABEL('179067'),$);
#470=IFCPROPERTYSINGLEVALUE('Tipo',$,IFCLABEL('Meson'),$);
#471=IFCPROPERTYSINGLEVALUE('Se mueve con elementos cercanos',$,IFCBOOLEAN(.F.),$);
#472=IFCPROPERTYSINGLEVALUE('\X\C1rea',$,IFCAREAMEASURE(6.1474999999997406),$);
#473=IFCPROPERTYSINGLEVALUE('Volumen',$,IFCVOLUMEMEASURE(0.12294999999999512),$);
#474=IFCPROPERTYSINGLEVALUE('Nombre de familia',$,IFCTEXT('Meson'),$);
#475=IFCPROPERTYSINGLEVALUE('Nombre de tipo',$,IFCTEXT('Meson'),$);
#476=IFCPROPERTYSET('16rh5bdsWnuJVAX9nfsuWT',#18,'Otra',$,(#466,#467,#468,#469,#470));
#477=IFCPROPERTYSET('3bzIqPvDDbm1Ck7Zv2LGNJ',#18,'Restricciones',$,(#471));
#478=IFCPROPERTYSET('2LHL55AGD4LFHNOZ$NI2BJ',#18,'Cotas',$,(#472,#473));
#479=IFCPROPERTYSET('31EDTGIWpgfQYU2m8znpz4',#18,'Proceso por fases',$,(#117));
#480=IFCPROPERTYSET('1WJ4VXeuz4ErQEP2fUhibm',#18,'Otra',$,(#466,#474));
#481=IFCPROPERTYSET('15d$G80ebXyXCxPsD_21OL',#18,'Datos de identidad',$,(#475));
#482=IFCAXIS2PLACEMENT3D(#3,$,$);
#484=IFCCARTESIANPOINTLIST2D(((-0.35250000000000192,-1.2349999999999992),(0.35249999999999809,-1.2349999999999992),(0.35250000000000192,1.2349999999999992),(-0.35249999999999809,1.2349999999999992),(-0.35250000000000192,-1.2349999999999992)));
#485=IFCINDEXEDPOLYCURVE(#484,$,.F.);
#486=IFCARBITRARYCLOSEDPROFILEDEF(.AREA.,'Vitrina',#485);
#487=IFCCARTESIANPOINT((0.95732076576667802,3.9856004692499205,0.20000000000000001));
#488=IFCAXIS2PLACEMENT3D(#487,#9,#7);
#489=IFCEXTRUDEDAREASOLID(#486,#488,#9,0.89999999999999991);
#490=IFCCOLOURRGB($,0.96862745098039216,0.96862745098039216,0.96862745098039216);
#491=IFCSURFACESTYLERENDERING(#490,0.,$,$,$,$,IFCNORMALISEDRATIOMEASURE(0.5),IFCSPECULAREXPONENT(64.),.NOTDEFINED.);
#492=IFCSURFACESTYLE('Aluminio 1',.BOTH.,(#491));
#493=IFCSTYLEDITEM(#489,(#492),$);
#494=IFCSHAPEREPRESENTATION(#24,'Body','SweptSolid',(#489));
#495=IFCAXIS2PLACEMENT3D(#3,$,$);
#496=IFCREPRESENTATIONMAP(#495,#494);
#497=IFCFURNITURETYPE('1WWfk1KQTBsR6M_dh56$2B',#18,'Vitrina:Vitrina',$,$,(#524,#525,#526),(#496),'180521',$,.NOTDEFINED.,.NOTDEFINED.);
#498=IFCMATERIAL('Aluminio 1',$,'Metal');
#499=IFCMAPPEDITEM(#496,#248);
#500=IFCSHAPEREPRESENTATION(#24,'Body','MappedRepresentation',(#499));
#501=IFCPRODUCTDEFINITIONSHAPE($,$,(#500));
#502=IFCAXIS2PLACEMENT3D(#3,$,$);
#503=IFCLOCALPLACEMENT(#34,#502);
#504=IFCFURNITURE('1WWfk1KQTBsR6M_dh56$29',#18,'Vitrina:Vitrina:180523',$,'Vitrina:Vitrina',#503,#501,'180523',.NOTDEFINED.);
#505=IFCPROPERTYSINGLEVALUE('Reference',$,IFCIDENTIFIER('Vitrina'),$);
#506=IFCPROPERTYSET('0_Oc2EHFOONvRnArocQqKw',#18,'Pset_EnvironmentalImpactIndicators',$,(#505));
#507=IFCPROPERTYSET('0Kcoh0HLXDQbscC446RPDp',#18,'Pset_FurnitureTypeCommon',$,(#505));
#508=IFCRELDEFINESBYPROPERTIES('0Lp1Fu4kroXlCoRbwUW5G6',#18,$,$,(#504),#506);
#509=IFCRELDEFINESBYPROPERTIES('2b$2ZODQ6aK_vLBivzQdAb',#18,$,$,(#504),#507);
#510=IFCPROPERTYSINGLEVALUE('Categor\X\EDa',$,IFCLABEL('Mobiliario'),$);
#511=IFCPROPERTYSINGLEVALUE('Familia',$,IFCLABEL('Vitrina'),$);
#512=IFCPROPERTYSINGLEVALUE('Familia y tipo',$,IFCLABEL('Vitrina: Vitrina'),$);
#513=IFCPROPERTYSINGLEVALUE('ID de tipo',$,IFCLABEL('180521'),$);
#514=IFCPROPERTYSINGLEVALUE('Tipo',$,IFCLABEL('Vitrina'),$);
#515=IFCPROPERTYSINGLEVALUE('\X\C1rea',$,IFCAREAMEASURE(1.7413499999999988),$);
#516=IFCPROPERTYSINGLEVALUE('Volumen',$,IFCVOLUMEMEASURE(1.5672149999999982),$);
#517=IFCPROPERTYSINGLEVALUE('Nombre de familia',$,IFCTEXT('Vitrina'),$);
#518=IFCPROPERTYSINGLEVALUE('Altura',$,IFCLENGTHMEASURE(0.),$);
#519=IFCPROPERTYSINGLEVALUE('Nombre de tipo',$,IFCTEXT('Vitrina'),$);
#520=IFCPROPERTYSET('3DCNt1p__BIx_DgowmTZj_',#18,'Otra',$,(#510,#511,#512,#513,#514));
#521=IFCPROPERTYSET('2IseEqnJxp6zmqNzSWL_Cj',#18,'Restricciones',$,(#471));
#522=IFCPROPERTYSET('04zbWhev9XiRUoekFoFNsc',#18,'Cotas',$,(#515,#516));
#523=IFCPROPERTYSET('1pzocLFRemeUPybbc$pZqR',#18,'Proceso por fases',$,(#117));
#524=IFCPROPERTYSET('3sn6Mm_ho8LJ$z$lunL2nu',#18,'Otra',$,(#510,#517));
#525=IFCPROPERTYSET('3$iCyznun2MCayVRfSM_Xz',#18,'Cotas',$,(#518));
#526=IFCPROPERTYSET('2EjC9rOgsemAuyLZIYyqbE',#18,'Datos de identidad',$,(#519));
#527=IFCAXIS2PLACEMENT3D(#3,$,$);
#529=IFCCARTESIANPOINTLIST2D(((-0.45250000000000035,-0.50000000000000022),(0.45249999999999968,-0.50000000000000022),(0.45249999999999929,0.49999999999999972),(-0.45250000000000073,0.50000000000000089),(-0.45250000000000035,-0.50000000000000022)));
#530=IFCINDEXEDPOLYCURVE(#529,$,.F.);
#531=IFCARBITRARYCLOSEDPROFILEDEF(.AREA.,'Horno Electrico',#530);
#532=IFCCARTESIANPOINT((1.3272543785541329,7.0968504692495769,0.20000000000000001));
#533=IFCAXIS2PLACEMENT3D(#532,#9,#8);
#534=IFCEXTRUDEDAREASOLID(#531,#533,#9,1.3899999999999999);
#535=IFCCOLOURRGB($,0.,0.,1.);
#536=IFCSURFACESTYLERENDERING(#535,0.,$,$,$,$,IFCNORMALISEDRATIOMEASURE(0.5),IFCSPECULAREXPONENT(64.),.NOTDEFINED.);
#537=IFCSURFACESTYLE('Relleno',.BOTH.,(#536));
#538=IFCSTYLEDITEM(#534,(#537),$);
#539=IFCSHAPEREPRESENTATION(#24,'Body','SweptSolid',(#534));
#540=IFCAXIS2PLACEMENT3D(#3,$,$);
#541=IFCREPRESENTATIONMAP(#540,#539);
#542=IFCFURNITURETYPE('3IK$KBYtL3s8RSlKGrR7ID',#18,'Horno Electrico:Horno Electrico',$,$,(#567,#568),(#541),'183269',$,.NOTDEFINED.,.NOTDEFINED.);
#543=IFCMATERIAL('Relleno',$,'Sistema');
#544=IFCMAPPEDITEM(#541,#248);
#545=IFCSHAPEREPRESENTATION(#24,'Body','MappedRepresentation',(#544));
#546=IFCPRODUCTDEFINITIONSHAPE($,$,(#545));
#547=IFCAXIS2PLACEMENT3D(#3,$,$);
#548=IFCLOCALPLACEMENT(#34,#547);
#549=IFCFURNITURE('3IK$KBYtL3s8RSlKGrR7IF',#18,'Horno Electrico:Horno Electrico:183271',$,'Horno Electrico:Horno Electrico',#548,#546,'183271',.NOTDEFINED.);
#550=IFCPROPERTYSINGLEVALUE('Reference',$,IFCIDENTIFIER('Horno Electrico'),$);
#551=IFCPROPERTYSET('0px8E$M7e3NSrciLlfLUgs',#18,'Pset_EnvironmentalImpactIndicators',$,(#550));
#552=IFCPROPERTYSET('3EjMMdeMTipmypmXg57$GU',#18,'Pset_FurnitureTypeCommon',$,(#550));
#553=IFCRELDEFINESBYPROPERTIES('1AkoyvA1bDGAHMHYBBH1MD',#18,$,$,(#549),#551);
#554=IFCRELDEFINESBYPROPERTIES('06Ra4AUWt9eGmiY8mGYamr',#18,$,$,(#549),#552);
#555=IFCPROPERTYSINGLEVALUE('Familia',$,IFCLABEL('Horno Electrico'),$);
#556=IFCPROPERTYSINGLEVALUE('Familia y tipo',$,IFCLABEL('Horno Electrico: Horno Electrico'),$);
#557=IFCPROPERTYSINGLEVALUE('ID de tipo',$,IFCLABEL('183269'),$);
#558=IFCPROPERTYSINGLEVALUE('Tipo',$,IFCLABEL('Horno Electrico'),$);
#559=IFCPROPERTYSINGLEVALUE('\X\C1rea',$,IFCAREAMEASURE(0.90500000000000047),$);
#560=IFCPROPERTYSINGLEVALUE('Volumen',$,IFCVOLUMEMEASURE(1.2579500000000006),$);
#561=IFCPROPERTYSINGLEVALUE('Nombre de familia',$,IFCTEXT('Horno Electrico'),$);
#562=IFCPROPERTYSINGLEVALUE('Nombre de tipo',$,IFCTEXT('Horno Electrico'),$);
#563=IFCPROPERTYSET('34EvGPuDg$U7GD6YelKiiN',#18,'Otra',$,(#466,#555,#556,#557,#558));
#564=IFCPROPERTYSET('0GL0svhPzyfvsEZ3co0exS',#18,'Restricciones',$,(#471));
#565=IFCPROPERTYSET('09AohSFW_HP0qdF_qYXeuE',#18,'Cotas',$,(#559,#560));
#566=IFCPROPERTYSET('3G5R39LWazajmlNU2CsYlR',#18,'Proceso por fases',$,(#117));
#567=IFCPROPERTYSET('03q9wyTvwvLGT4ItGVJrcT',#18,'Otra',$,(#466,#561));
#568=IFCPROPERTYSET('0ws8Vl0qWyzUDOJxWGM2Xo',#18,'Datos de identidad',$,(#562));
#569=IFCAXIS2PLACEMENT3D(#3,$,$);
#571=IFCCARTESIANPOINTLIST2D(((-0.34999999999999915,-0.80499999999999894),(0.3500000000000012,-0.80499999999999894),(0.34999999999999887,0.80500000000000105),(-0.35000000000000148,0.80500000000000005),(-0.34999999999999915,-0.80499999999999894)));
#572=IFCINDEXEDPOLYCURVE(#571,$,.F.);
#573=IFCARBITRARYCLOSEDPROFILEDEF(.AREA.,'Nevera',#572);
#574=IFCCARTESIANPOINT((2.3154457657666758,5.3067589352228284,0.20000000000000001));
#575=IFCAXIS2PLACEMENT3D(#574,$,$);
#576=IFCEXTRUDEDAREASOLID(#573,#575,#9,0.68000000000000005);
#577=IFCSTYLEDITEM(#576,(#537),$);
#578=IFCSHAPEREPRESENTATION(#24,'Body','SweptSolid',(#576));
#579=IFCAXIS2PLACEMENT3D(#3,$,$);
#580=IFCREPRESENTATIONMAP(#579,#578);
#581=IFCFURNITURETYPE('3IK$KBYtL3s8RSlKGrR78C',#18,'Nevera:Nevera',$,$,(#605,#606,#607),(#580),'183652',$,.NOTDEFINED.,.NOTDEFINED.);
#582=IFCMAPPEDITEM(#580,#248);
#583=IFCSHAPEREPRESENTATION(#24,'Body','MappedRepresentation',(#582));
#584=IFCPRODUCTDEFINITIONSHAPE($,$,(#583));
#585=IFCAXIS2PLACEMENT3D(#3,$,$);
#586=IFCLOCALPLACEMENT(#34,#585);
#587=IFCFURNITURE('3IK$KBYtL3s8RSlKGrR78E',#18,'Nevera:Nevera:183654',$,'Nevera:Nevera',#586,#584,'183654',.NOTDEFINED.);
#588=IFCPROPERTYSINGLEVALUE('Reference',$,IFCIDENTIFIER('Nevera'),$);
#589=IFCPROPERTYSET('3XewZMud4$kzb29XLak1hw',#18,'Pset_EnvironmentalImpactIndicators',$,(#588));
#590=IFCPROPERTYSET('3odd_hJdSUGImycYeIIGbI',#18,'Pset_FurnitureTypeCommon',$,(#588));
#591=IFCRELDEFINESBYPROPERTIES('2P4CxPHZbCAbQMYmqtq176',#18,$,$,(#587),#589);
#592=IFCRELDEFINESBYPROPERTIES('34wBkzaWuZzXkUe9x9aGwE',#18,$,$,(#587),#590);
#593=IFCPROPERTYSINGLEVALUE('Familia',$,IFCLABEL('Nevera'),$);
#594=IFCPROPERTYSINGLEVALUE('Familia y tipo',$,IFCLABEL('Nevera: Nevera'),$);
#595=IFCPROPERTYSINGLEVALUE('ID de tipo',$,IFCLABEL('183652'),$);
#596=IFCPROPERTYSINGLEVALUE('Tipo',$,IFCLABEL('Nevera'),$);
#597=IFCPROPERTYSINGLEVALUE('\X\C1rea',$,IFCAREAMEASURE(1.127),$);
#598=IFCPROPERTYSINGLEVALUE('Volumen',$,IFCVOLUMEMEASURE(0.76636000000000015),$);
#599=IFCPROPERTYSINGLEVALUE('Nombre de familia',$,IFCTEXT('Nevera'),$);
#600=IFCPROPERTYSINGLEVALUE('Nombre de tipo',$,IFCTEXT('Nevera'),$);
#601=IFCPROPERTYSET('34Sj24U5huCW5HbaeivJnI',#18,'Otra',$,(#510,#593,#594,#595,#596));
#602=IFCPROPERTYSET('1Yd_Umdd8Ztl1opljijneV',#18,'Restricciones',$,(#471));
#603=IFCPROPERTYSET('2ydfMTBBYnVYPVcQDUhmRF',#18,'Cotas',$,(#597,#598));
#604=IFCPROPERTYSET('1$vvladthhjy8wKaEELFK7',#18,'Proceso por fases',$,(#117));
#605=IFCPROPERTYSET('0EPMLUWEB4ChSp6Lz4EsiV',#18,'Otra',$,(#510,#599));
#606=IFCPROPERTYSET('0FIMNGdBHiV$zhMkPxqXDj',#18,'Cotas',$,(#518));
#607=IFCPROPERTYSET('0B5BTkBfzYbu$SeQP2CUqm',#18,'Datos de identidad',$,(#600));
#608=IFCAXIS2PLACEMENT3D(#3,$,$);
#609=IFCLOCALPLACEMENT(#34,#608);
#610=IFCCARTESIANPOINTLIST2D(((-1.6056249999998649,-1.7081249999999988),(1.6056249999998702,-1.7081249999999988),(1.6056249999998653,1.7081249999999988),(-1.6056249999998702,1.7081249999999988),(-1.6056249999998649,-1.7081249999999988)));
#611=IFCINDEXEDPOLYCURVE(#610,$,.F.);
#612=IFCARBITRARYCLOSEDPROFILEDEF(.AREA.,$,#611);
#613=IFCCARTESIANPOINT((0.95732076576667802,5.9437254692497881,0.20000000000000001));
#614=IFCAXIS2PLACEMENT3D(#613,#10,#7);
#615=IFCEXTRUDEDAREASOLID(#612,#614,#9,0.20000000000000001);
#616=IFCCOLOURRGB($,0.83137254901960789,0.83137254901960789,0.83137254901960789);
#617=IFCSURFACESTYLERENDERING(#616,0.,$,$,$,$,IFCNORMALISEDRATIOMEASURE(0.5),IFCSPECULAREXPONENT(64.),.NOTDEFINED.);
#618=IFCSURFACESTYLE('Suelos por defecto',.BOTH.,(#617));
#619=IFCSTYLEDITEM(#615,(#618),$);
#620=IFCSHAPEREPRESENTATION(#24,'Body','SweptSolid',(#615));
#621=IFCCARTESIANPOINTLIST2D(((-0.75080423423332354,4.3381004692499268),(-0.7508042342333181,7.5493504692496618),(2.6654457657666795,7.5493504692496503),(2.6654457657666741,4.3381004692499152),(-0.75080423423332354,4.3381004692499268)));
#622=IFCINDEXEDPOLYCURVE(#621,$,.F.);
#623=IFCSHAPEREPRESENTATION(#26,'FootPrint','Curve2D',(#622));
#624=IFCPRODUCTDEFINITIONSHAPE($,$,(#620,#623));
#625=IFCSLAB('3IK$KBYtL3s8RSlKGrR7BB',#18,'Suelo:SUELO MONTECARLO:183715',$,'Suelo:SUELO MONTECARLO',#609,#624,'183715',.FLOOR.);
#626=IFCSLABTYPE('3IK$KBYtL3s8RSlKGrR6qp',#18,'Suelo:SUELO MONTECARLO',$,$,(#673,#674,#675,#676,#677),$,'184923',$,.FLOOR.);
#627=IFCMATERIAL('Suelos por defecto',$,'Gen\X\E9rico');
#628=IFCPROPERTYSINGLEVALUE('Reference',$,IFCIDENTIFIER('SUELO MONTECARLO'),$);
#629=IFCPROPERTYSET('3W0spqmMI$_q4xwsRjRTcd',#18,'Pset_EnvironmentalImpactIndicators',$,(#628));
#630=IFCPROPERTYSINGLEVALUE('Reference',$,IFCLABEL('SUELO MONTECARLO'),$);
#631=IFCPROPERTYSET('19pBcGvc1xsUGJyNsXg8s9',#18,'Pset_ReinforcementBarPitchOfSlab',$,(#630));
#632=IFCPROPERTYSINGLEVALUE('PitchAngle',$,IFCPLANEANGLEMEASURE(0.),$);
#633=IFCPROPERTYSET('0UvNfaBK9GodSfuV_aSbmX',#18,'Pset_SlabCommon',$,(#91,#264,#628,#632));
#634=IFCRELDEFINESBYPROPERTIES('1OiPynBISBd2NbEqO9xlOx',#18,$,$,(#625),#629);
#635=IFCRELDEFINESBYPROPERTIES('0WZsUTy_3pGND13GUcaTEA',#18,$,$,(#625),#631);
#636=IFCRELDEFINESBYPROPERTIES('3BO_wYbCvH3_1EtqD7FWEc',#18,$,$,(#625),#633);
#637=IFCQUANTITYLENGTH('Width','',$,3.4162499999999976,$);
#638=IFCQUANTITYLENGTH('Length','',$,3.2112499999997404,$);
#639=IFCQUANTITYLENGTH('Depth','',$,0.20000000000000001,$);
#640=IFCQUANTITYLENGTH('Perimeter','',$,13.254999999999464,$);
#641=IFCQUANTITYAREA('GrossArea','',$,10.970432812499091,$);
#642=IFCQUANTITYAREA('NetArea','',$,10.970432812499089,$);
#643=IFCQUANTITYVOLUME('GrossVolume','',$,2.1940865624998183,$);
#644=IFCQUANTITYVOLUME('NetVolume','',$,2.1940865624998174,$);
#645=IFCELEMENTQUANTITY('0_iirFfVfSCTcHR8eggHvY',#18,'Qto_SlabBaseQuantities',$,$,(#637,#638,#639,#640,#641,#642,#643,#644));
#646=IFCRELDEFINESBYPROPERTIES('3ay0$zn3NM1XRyhYV9HU2q',#18,$,$,(#625),#645);
#647=IFCPROPERTYSINGLEVALUE('Categor\X\EDa',$,IFCLABEL('Suelos'),$);
#648=IFCPROPERTYSINGLEVALUE('Familia',$,IFCLABEL('Suelo'),$);
#649=IFCPROPERTYSINGLEVALUE('Familia y tipo',$,IFCLABEL('Suelo: SUELO MONTECARLO'),$);
#650=IFCPROPERTYSINGLEVALUE('ID de tipo',$,IFCLABEL('184923'),$);
#651=IFCPROPERTYSINGLEVALUE('Tipo',$,IFCLABEL('SUELO MONTECARLO'),$);
#652=IFCPROPERTYSINGLEVALUE('Desfase de altura desde nivel',$,IFCLENGTHMEASURE(0.20000000000000001),$);
#653=IFCPROPERTYSINGLEVALUE('\X\C1rea',$,IFCAREAMEASURE(10.970432812499089),$);
#654=IFCPROPERTYSINGLEVALUE('Elevaci\X\F3n en parte inferior',$,IFCLENGTHMEASURE(0.),$);
#655=IFCPROPERTYSINGLEVALUE('Elevaci\X\F3n en parte inferior de n\X\FAcleo',$,IFCLENGTHMEASURE(0.),$);
#656=IFCPROPERTYSINGLEVALUE('Elevaci\X\F3n en parte superior',$,IFCLENGTHMEASURE(0.20000000000000001),$);
#657=IFCPROPERTYSINGLEVALUE('Elevaci\X\F3n en parte superior de n\X\FAcleo',$,IFCLENGTHMEASURE(0.20000000000000001),$);
#658=IFCPROPERTYSINGLEVALUE('Grosor',$,IFCLENGTHMEASURE(0.20000000000000001),$);
#659=IFCPROPERTYSINGLEVALUE('Per\X\EDmetro',$,IFCLENGTHMEASURE(13.254999999999466),$);
#660=IFCPROPERTYSINGLEVALUE('Volumen',$,IFCVOLUMEMEASURE(2.1940865624998174),$);
#661=IFCPROPERTYSINGLEVALUE('Tiene asociaci\X\F3n',$,IFCBOOLEAN(.F.),$);
#662=IFCPROPERTYSINGLEVALUE('Nombre de familia',$,IFCTEXT('Suelo'),$);
#663=IFCPROPERTYSINGLEVALUE('Funci\X\F3n',$,IFCIDENTIFIER('Interior'),$);
#664=IFCPROPERTYSINGLEVALUE('Grosor predeterminado',$,IFCLENGTHMEASURE(0.20000000000000001),$);
#665=IFCPROPERTYSINGLEVALUE('Nombre de tipo',$,IFCTEXT('SUELO MONTECARLO'),$);
#666=IFCPROPERTYSINGLEVALUE('Nota clave',$,IFCTEXT('S.6'),$);
#667=IFCPROPERTYSET('27n$RDHv6_fS_xocLwoulj',#18,'Otra',$,(#647,#648,#649,#650,#651));
#668=IFCPROPERTYSET('2T$bEJEBvxeasPFFXhVnyN',#18,'Restricciones',$,(#103,#111,#278,#652));
#669=IFCPROPERTYSET('3Nxyxg1CXacVNw0R$Ag5jJ',#18,'Cotas',$,(#653,#654,#655,#656,#657,#658,#659,#660));
#670=IFCPROPERTYSET('23DQ0fVI0lnIC0Xx4VBHMP',#18,'Datos de identidad',$,(#661));
#671=IFCPROPERTYSET('3jAnzDbgpZM_mPVe5fP5rG',#18,'Proceso por fases',$,(#117));
#672=IFCPROPERTYSET('39uSi3NqstheI4V6YTi3uw',#18,'Estructura',$,(#118));
#673=IFCPROPERTYSET('1U9ZQEDd$_pY75P0rpDb88',#18,'Otra',$,(#647,#662));
#674=IFCPROPERTYSET('2Er7LaHLlreuW6vWz4nxNN',#18,'Construcci\X\F3n',$,(#663,#664));
#675=IFCPROPERTYSET('1cGYL2kn0KVyhPzzC2gO0M',#18,'Gr\X\E1ficos',$,(#126));
#676=IFCPROPERTYSET('051DXM_rtb7lqeKsc0vv1R',#18,'Datos de identidad',$,(#665,#666));
#677=IFCPROPERTYSET('2Vz4FBTxsyoci_553RmoX2',#18,'Propiedades anal\X\EDticas',$,(#129,#130));
#678=IFCCARTESIANPOINT((2.6654457657666741,4.0731004692499155,0.));
#679=IFCAXIS2PLACEMENT3D(#678,#9,#6);
#680=IFCLOCALPLACEMENT(#34,#679);
#681=IFCCARTESIANPOINTLIST3D(((-2.3812730372883844E-16,0.,0.),(0.47312499999999641,0.,0.)));
#682=IFCINDEXEDPOLYCURVE(#681,$,.F.);
#683=IFCSHAPEREPRESENTATION(#23,'Axis','Curve3D',(#682));
#684=IFCCARTESIANPOINTLIST2D(((0.47312499999999641,0.059999999999999651),(-2.4374031515274628E-16,0.059999999999999894),(2.4374031515274628E-16,-0.059999999999999894),(0.47312499999999696,-0.060000000000000143),(0.47312499999999641,0.059999999999999651)));
#685=IFCINDEXEDPOLYCURVE(#684,$,.F.);
#686=IFCARBITRARYCLOSEDPROFILEDEF(.AREA.,$,#685);
#687=IFCAXIS2PLACEMENT3D(#3,$,$);
#688=IFCEXTRUDEDAREASOLID(#686,#687,#9,1.0800000000000001);
#689=IFCSTYLEDITEM(#688,(#68),$);
#690=IFCSHAPEREPRESENTATION(#24,'Body','SweptSolid',(#688));
#691=IFCPRODUCTDEFINITIONSHAPE($,$,(#683,#690));
#692=IFCWALL('27NJqQjJr9o9LPq_yG4Q9p',#18,'Muro b\X\E1sico:Por defecto - 12 cm:185856',$,'Muro b\X\E1sico:Por defecto - 12 cm',#680,#691,'185856',.NOTDEFINED.);
#693=IFCQUANTITYLENGTH('Height',$,$,1.0800000000000001,$);
#694=IFCQUANTITYLENGTH('Length',$,$,0.47312499999999641,$);
#695=IFCQUANTITYLENGTH('Width',$,$,0.12,$);
#696=IFCQUANTITYAREA('GrossFootprintArea',$,$,0.056774999999999506,$);
#697=IFCQUANTITYVOLUME('GrossVolume',$,$,0.061316999999999518,$);
#698=IFCQUANTITYAREA('GrossSideArea',$,$,0.51097499999999596,$);
#699=IFCQUANTITYAREA('NetSideArea',$,$,0.51097499999999596,$);
#700=IFCQUANTITYVOLUME('NetVolume',$,$,0.061316999999999393,$);
#701=IFCELEMENTQUANTITY('0yopc8yyKBK64ATo1Of0M0',#18,'Qto_WallBaseQuantities',$,$,(#693,#694,#695,#696,#697,#698,#699,#700));
#702=IFCRELDEFINESBYPROPERTIES('2WEPiuhYip3ArkoEbjDtF9',#18,$,$,(#692),#701);
#703=IFCPROPERTYSET('17RDvTts5sPGj3vqzC4uTa',#18,'Pset_EnvironmentalImpactIndicators',$,(#86));
#704=IFCPROPERTYSINGLEVALUE('Reference',$,IFCLABEL('Por defecto - 12 cm'),$);
#705=IFCPROPERTYSET('1BDd4oQ5yS81pcnn6pw4cM',#18,'Pset_ReinforcementBarPitchOfWall',$,(#704));
#706=IFCPROPERTYSET('1CLPgh$glyGQjRVINS1F5L',#18,'Pset_WallCommon',$,(#86,#90,#91,#92));
#707=IFCRELDEFINESBYPROPERTIES('3CitSX5ptuSjaAaRUCRqZB',#18,$,$,(#692),#703);
#708=IFCRELDEFINESBYPROPERTIES('3c$1WeiIXaNWC1SJg_chxm',#18,$,$,(#692),#705);
#709=IFCRELDEFINESBYPROPERTIES('3Yjb488lo25VYPmOB1W52a',#18,$,$,(#692),#706);
#710=IFCPROPERTYSINGLEVALUE('Altura desconectada',$,IFCLENGTHMEASURE(1.0800000000000001),$);
#711=IFCPROPERTYSINGLEVALUE('\X\C1rea',$,IFCAREAMEASURE(0.51097499999999596),$);
#712=IFCPROPERTYSINGLEVALUE('Longitud',$,IFCLENGTHMEASURE(0.53312499999999607),$);
#713=IFCPROPERTYSINGLEVALUE('Volumen',$,IFCVOLUMEMEASURE(0.061316999999999393),$);
#714=IFCPROPERTYSET('3vq5kK5fkEMtElWfngWg_1',#18,'Otra',$,(#97,#98,#99,#100,#101));
#715=IFCPROPERTYSET('0_aawB3WUZMVi79eFCr7NH',#18,'Restricciones',$,(#103,#104,#106,#107,#108,#109,#110,#111,#112,#277,#710));
#716=IFCPROPERTYSET('0taAUkYQKtSK35LUYeVytW',#18,'Cotas',$,(#711,#712,#713));
#717=IFCPROPERTYSET('1rLh4IVN8ZTMSwmlyjQ5gd',#18,'Proceso por fases',$,(#117));
#718=IFCPROPERTYSET('3l$9G9AsDAOocc$g0uaTWO',#18,'Estructura',$,(#118,#119));
#719=IFCPROPERTYSET('0G0iN1mFPbGW9wJo4dDkU3',#18,'Definici\X\F3n de secci\X\F3n transversal',$,(#120));
#720=IFCCARTESIANPOINT((-0.27767923423332119,4.0731004692499244,0.));
#721=IFCAXIS2PLACEMENT3D(#720,#9,#6);
#722=IFCLOCALPLACEMENT(#34,#721);
#723=IFCCARTESIANPOINTLIST3D(((-1.2501191947784613E-18,0.,0.),(0.47312500000000257,5.4143356464919637E-16,0.)));
#724=IFCINDEXEDPOLYCURVE(#723,$,.F.);
#725=IFCSHAPEREPRESENTATION(#23,'Axis','Curve3D',(#724));
#726=IFCCARTESIANPOINTLIST2D(((0.47312500000000263,0.060000000000000192),(2.6976467171851882E-17,0.059999999999999894),(-2.6976467171851882E-17,-0.059999999999999894),(0.47312500000000263,-0.059999999999999602),(0.47312500000000263,0.060000000000000192)));
#727=IFCINDEXEDPOLYCURVE(#726,$,.F.);
#728=IFCARBITRARYCLOSEDPROFILEDEF(.AREA.,$,#727);
#729=IFCAXIS2PLACEMENT3D(#3,$,$);
#730=IFCEXTRUDEDAREASOLID(#728,#729,#9,1.0800000000000001);
#731=IFCSTYLEDITEM(#730,(#68),$);
#732=IFCSHAPEREPRESENTATION(#24,'Body','SweptSolid',(#730));
#733=IFCPRODUCTDEFINITIONSHAPE($,$,(#725,#732));
#734=IFCWALL('27NJqQjJr9o9LPq_yG4Q9B',#18,'Muro b\X\E1sico:Por defecto - 12 cm:185912',$,'Muro b\X\E1sico:Por defecto - 12 cm',#722,#733,'185912',.NOTDEFINED.);
#735=IFCQUANTITYLENGTH('Height',$,$,1.0800000000000001,$);
#736=IFCQUANTITYLENGTH('Length',$,$,0.47312500000000263,$);
#737=IFCQUANTITYLENGTH('Width',$,$,0.12,$);
#738=IFCQUANTITYAREA('GrossFootprintArea',$,$,0.056775000000000214,$);
#739=IFCQUANTITYVOLUME('GrossVolume',$,$,0.061317000000000323,$);
#740=IFCQUANTITYAREA('GrossSideArea',$,$,0.51097500000000273,$);
#741=IFCQUANTITYAREA('NetSideArea',$,$,0.51097500000000273,$);
#742=IFCQUANTITYVOLUME('NetVolume',$,$,0.061317000000000212,$);
#743=IFCELEMENTQUANTITY('1Jd9Rbq2GSWSD$HLoJCo5d',#18,'Qto_WallBaseQuantities',$,$,(#735,#736,#737,#738,#739,#740,#741,#742));
#744=IFCRELDEFINESBYPROPERTIES('3ai1iFPLnXs0INC9Dhw4hf',#18,$,$,(#734),#743);
#745=IFCPROPERTYSET('1L_R3$JXLppKZlQR5lg4gL',#18,'Pset_EnvironmentalImpactIndicators',$,(#86));
#746=IFCPROPERTYSINGLEVALUE('Reference',$,IFCLABEL('Por defecto - 12 cm'),$);
#747=IFCPROPERTYSET('2rD90YB3T0Qy9ku2GpB1lh',#18,'Pset_ReinforcementBarPitchOfWall',$,(#746));
#748=IFCPROPERTYSET('1fenkkqi3HtuhC1gw3uhDX',#18,'Pset_WallCommon',$,(#86,#90,#91,#92));
#749=IFCRELDEFINESBYPROPERTIES('2wyM6YpZm7KixMABsfYvwQ',#18,$,$,(#734),#745);
#750=IFCRELDEFINESBYPROPERTIES('0FW3AbXhNyoXV7qr0eXUgn',#18,$,$,(#734),#747);
#751=IFCRELDEFINESBYPROPERTIES('0mfO_rew3gdioogrIIlxMo',#18,$,$,(#734),#748);
#752=IFCPROPERTYSINGLEVALUE('Altura desconectada',$,IFCLENGTHMEASURE(1.0800000000000001),$);
#753=IFCPROPERTYSINGLEVALUE('\X\C1rea',$,IFCAREAMEASURE(0.51097500000000273),$);
#754=IFCPROPERTYSINGLEVALUE('Longitud',$,IFCLENGTHMEASURE(0.53312500000000251),$);
#755=IFCPROPERTYSINGLEVALUE('Volumen',$,IFCVOLUMEMEASURE(0.061317000000000212),$);
#756=IFCPROPERTYSET('2qMNICFvE8NaReVMN0YooN',#18,'Otra',$,(#97,#98,#99,#100,#101));
#757=IFCPROPERTYSET('0svFQP3UfnmOqZ63fBp5uf',#18,'Restricciones',$,(#103,#104,#106,#107,#108,#109,#110,#111,#112,#277,#752));
#758=IFCPROPERTYSET('1oydBg_vna$0qaknnpl93O',#18,'Cotas',$,(#753,#754,#755));
#759=IFCPROPERTYSET('0A2_nnTIK7EGLz9pOGN29p',#18,'Proceso por fases',$,(#117));
#760=IFCPROPERTYSET('26mHYnvV4FD2adu$MtBtbv',#18,'Estructura',$,(#118,#119));
#761=IFCPROPERTYSET('3ntMVeWQS9E9DTIixkYwc4',#18,'Definici\X\F3n de secci\X\F3n transversal',$,(#120));
#762=IFCAXIS2PLACEMENT3D(#3,$,$);
#764=IFCCARTESIANPOINTLIST2D(((-1.2349999999999985,-0.3525000000000027),(1.2349999999999985,-0.3525000000000027),(1.2349999999999985,0.35250000000000214),(-1.2349999999999985,0.35250000000000214),(-1.2349999999999985,-0.3525000000000027)));
#765=IFCINDEXEDPOLYCURVE(#764,$,.F.);
#766=IFCARBITRARYCLOSEDPROFILEDEF(.AREA.,'DETALLE DE VITRINA',#765);
#767=IFCCARTESIANPOINT((0.95732076576667802,3.9856004692499214,0.));
#768=IFCAXIS2PLACEMENT3D(#767,#9,#6);
#769=IFCEXTRUDEDAREASOLID(#766,#768,#9,0.20000000000000001);
#770=IFCCOLOURRGB($,0.82352941176470584,0.70588235294117652,0.43137254901960786);
#771=IFCSURFACESTYLERENDERING(#770,0.,$,$,$,$,IFCNORMALISEDRATIOMEASURE(0.5),IFCSPECULAREXPONENT(128.),.NOTDEFINED.);
#772=IFCSURFACESTYLE('Madera blanda, madera',.BOTH.,(#771));
#773=IFCSTYLEDITEM(#769,(#772),$);
#774=IFCSHAPEREPRESENTATION(#24,'Body','SweptSolid',(#769));
#775=IFCAXIS2PLACEMENT3D(#3,$,$);
#776=IFCREPRESENTATIONMAP(#775,#774);
#777=IFCFURNITURETYPE('158orXgV54zOqiI91raFTt',#18,'DETALLE DE VITRINA:DETALLE DE VITRINA',$,$,(#802,#803),(#776),'188872',$,.NOTDEFINED.,.NOTDEFINED.);
#778=IFCMATERIAL('Madera blanda, madera',$,'Madera');
#779=IFCMAPPEDITEM(#776,#248);
#780=IFCSHAPEREPRESENTATION(#24,'Body','MappedRepresentation',(#779));
#781=IFCPRODUCTDEFINITIONSHAPE($,$,(#780));
#782=IFCAXIS2PLACEMENT3D(#3,$,$);
#783=IFCLOCALPLACEMENT(#34,#782);
#784=IFCFURNITURE('158orXgV54zOqiI91raFTr',#18,'DETALLE DE VITRINA:DETALLE DE VITRINA:188874',$,'DETALLE DE VITRINA:DETALLE DE VITRINA',#783,#781,'188874',.NOTDEFINED.);
#785=IFCPROPERTYSINGLEVALUE('Reference',$,IFCIDENTIFIER('DETALLE DE VITRINA'),$);
#786=IFCPROPERTYSET('2SL9pNXyKQcSAKap0nHc4j',#18,'Pset_EnvironmentalImpactIndicators',$,(#785));
#787=IFCPROPERTYSET('2qT_KbFOAyWveiwDQfXRAL',#18,'Pset_FurnitureTypeCommon',$,(#785));
#788=IFCRELDEFINESBYPROPERTIES('1hYs1OTUnNAlc5QixkINW4',#18,$,$,(#784),#786);
#789=IFCRELDEFINESBYPROPERTIES('2rMfbDXt_LOozcMxhR5WJJ',#18,$,$,(#784),#787);
#790=IFCPROPERTYSINGLEVALUE('Familia',$,IFCLABEL('DETALLE DE VITRINA'),$);
#791=IFCPROPERTYSINGLEVALUE('Familia y tipo',$,IFCLABEL('DETALLE DE VITRINA: DETALLE DE VITRINA'),$);
#792=IFCPROPERTYSINGLEVALUE('ID de tipo',$,IFCLABEL('188872'),$);
#793=IFCPROPERTYSINGLEVALUE('Tipo',$,IFCLABEL('DETALLE DE VITRINA'),$);
#794=IFCPROPERTYSINGLEVALUE('\X\C1rea',$,IFCAREAMEASURE(1.7413500000000099),$);
#795=IFCPROPERTYSINGLEVALUE('Volumen',$,IFCVOLUMEMEASURE(0.34827000000000208),$);
#796=IFCPROPERTYSINGLEVALUE('Nombre de familia',$,IFCTEXT('DETALLE DE VITRINA'),$);
#797=IFCPROPERTYSINGLEVALUE('Nombre de tipo',$,IFCTEXT('DETALLE DE VITRINA'),$);
#798=IFCPROPERTYSET('1wUxv7FvDlt7mLNDTpk4kk',#18,'Otra',$,(#466,#790,#791,#792,#793));
#799=IFCPROPERTYSET('1SC$OtbWdVV94bJENynnEY',#18,'Restricciones',$,(#471));
#800=IFCPROPERTYSET('3eGbex$OBf$T2hZqo_OCfc',#18,'Cotas',$,(#794,#795));
#801=IFCPROPERTYSET('3A4qdP$zXB1j1lC8yOwknc',#18,'Proceso por fases',$,(#117));
#802=IFCPROPERTYSET('2_qabbm177DtQRiZKv7tF0',#18,'Otra',$,(#466,#796));
#803=IFCPROPERTYSET('2DmJEMBI15xuYhNJZneink',#18,'Datos de identidad',$,(#797));
#804=IFCPROPERTYSINGLEVALUE('Reference',$,IFCIDENTIFIER('Nivel 1'),$);
#805=IFCPROPERTYSINGLEVALUE('AboveGround',$,IFCLOGICAL(.U.),$);
#806=IFCPROPERTYSET('2tjcviAIKq$6OhMAqJIcNZ',#18,'Pset_BuildingStoreyCommon',$,(#804,#805));
#807=IFCRELDEFINESBYPROPERTIES('2fGMNdmdhLpyRc0DpR_PiM',#18,$,$,(#35),#806);
#808=IFCPROPERTYSINGLEVALUE('Categor\X\EDa',$,IFCLABEL('Niveles'),$);
#809=IFCPROPERTYSINGLEVALUE('Familia',$,IFCLABEL('Nivel'),$);
#810=IFCPROPERTYSINGLEVALUE('Familia y tipo',$,IFCLABEL('Nivel: Nivel 1'),$);
#811=IFCPROPERTYSINGLEVALUE('ID de tipo',$,IFCLABEL('927'),$);
#812=IFCPROPERTYSINGLEVALUE('Tipo',$,IFCLABEL('Nivel 1'),$);
#813=IFCPROPERTYSINGLEVALUE('Elevaci\X\F3n',$,IFCLENGTHMEASURE(0.),$);
#814=IFCPROPERTYSINGLEVALUE('Altura de c\X\E1lculo',$,IFCLENGTHMEASURE(0.),$);
#815=IFCPROPERTYSINGLEVALUE('Nombre',$,IFCTEXT('Nivel 1'),$);
#816=IFCPROPERTYSINGLEVALUE('Planta de edificio',$,IFCBOOLEAN(.T.),$);
#817=IFCPROPERTYSINGLEVALUE('Nombre de familia',$,IFCTEXT('Nivel'),$);
#818=IFCPROPERTYSINGLEVALUE('Base de elevaci\X\F3n',$,IFCIDENTIFIER('Punto base del proyecto'),$);
#819=IFCPROPERTYSINGLEVALUE('Color',$,IFCINTEGER(0),$);
#820=IFCPROPERTYSINGLEVALUE('Grosor de l\X\EDnea',$,IFCIDENTIFIER('1'),$);
#821=IFCPROPERTYSINGLEVALUE('Patr\X\F3n de l\X\EDnea',$,IFCLABEL('Trazo punto'),$);
#822=IFCPROPERTYSINGLEVALUE('S\X\EDmbolo',$,IFCLABEL('Extremo de nivel'),$);
#823=IFCPROPERTYSINGLEVALUE('S\X\EDmbolo en extremo 1 por defecto',$,IFCBOOLEAN(.F.),$);
#824=IFCPROPERTYSINGLEVALUE('S\X\EDmbolo en extremo 2 por defecto',$,IFCBOOLEAN(.T.),$);
#825=IFCPROPERTYSINGLEVALUE('Nombre de tipo',$,IFCTEXT('Nivel 1'),$);
#826=IFCPROPERTYSET('2gxOWuqyVrTgAWF3uw2iIS',#18,'Otra',$,(#808,#809,#810,#811,#812));
#827=IFCPROPERTYSET('2jyPgrlU8ZyC3QkmeXXDVm',#18,'Restricciones',$,(#813));
#828=IFCPROPERTYSET('3DNgE$M0gYs3fDyTeKPDxd',#18,'Cotas',$,(#814));
#829=IFCPROPERTYSET('2DYlILwIZoU122WoPVN3Wr',#18,'Datos de identidad',$,(#118,#815,#816));
#830=IFCPROPERTYSET('3gh_S$HCh3NQ7sWvgNqmeE',#18,'Otra(Tipo)',$,(#808,#817));
#831=IFCPROPERTYSET('2Nmj$LQdVvuXg3AMi1JRID',#18,'Restricciones(Tipo)',$,(#818));
#832=IFCPROPERTYSET('2K0aHAQDiA_6fMqF9qSRgC',#18,'Gr\X\E1ficos(Tipo)',$,(#819,#820,#821,#822,#823,#824));
#833=IFCPROPERTYSET('3NHTKuyQQneb$Y3Lu7RKK5',#18,'Datos de identidad(Tipo)',$,(#825));
#834=IFCRELCONTAINEDINSPATIALSTRUCTURE('29TFpHBYXAnw12ni$37b4C',#18,$,$,(#72,#156,#199,#255,#304,#342,#368,#402,#460,#504,#549,#587,#625,#692,#734,#784),#35);
#835=IFCPROPERTYSET('2FCiAOLebN1PGjMVnsIwIt',#18,'Pset_BuildingStoreyCommon',$,(#804,#805));
#836=IFCRELDEFINESBYPROPERTIES('2bObhia50zIyUbb6goJdaQ',#18,$,$,(#39),#835);
#837=IFCPROPERTYSINGLEVALUE('Elevaci\X\F3n',$,IFCLENGTHMEASURE(2.9999999999999996),$);
#838=IFCPROPERTYSINGLEVALUE('Nombre',$,IFCTEXT('Nivel 2'),$);
#839=IFCPROPERTYSET('1r9T7psrEpQSaloFoaDWeY',#18,'Otra',$,(#808,#809,#810,#811,#812));
#840=IFCPROPERTYSET('14SvEOgZbeTNVF0suWuq1K',#18,'Restricciones',$,(#837));
#841=IFCPROPERTYSET('0DrWdVVC1bruEdoAB5UFT5',#18,'Cotas',$,(#814));
#842=IFCPROPERTYSET('2e0mfR_G1RrGsYcz8jI6Mj',#18,'Datos de identidad',$,(#118,#816,#838));
#843=IFCRELAGGREGATES('0Nhs3ynlcAdI9ia_9dtKUq',#18,$,$,#27,(#42));
#844=IFCRELAGGREGATES('2JVDFLM2$96cQJGaynbN$z',#18,$,$,#42,(#32));
#845=IFCRELAGGREGATES('29TFpHBYXAnw12nit37b74',#18,$,$,#32,(#35,#39));
#846=IFCPROPERTYSINGLEVALUE('NumberOfStoreys',$,IFCINTEGER(1),$);
#847=IFCPROPERTYSINGLEVALUE('IsLandmarked',$,IFCLOGICAL(.U.),$);
#848=IFCPROPERTYSET('34N9VzraJAyoTG5z9Qd5$p',#18,'Pset_BuildingCommon',$,(#43,#846,#847));
#849=IFCPROPERTYSET('24uClC7r8SW0HUkq_ObtKv',#18,'Pset_BuildingElementProxyCommon',$,(#43,#264));
#850=IFCPROPERTYSET('3JqieTM4k7wXriXjZJxg9o',#18,'Pset_BuildingStoreyCommon',$,(#43,#805));
#851=IFCPROPERTYSET('1mDUubkDr6gG5G2XLtR1_x',#18,'Pset_BuildingSystemCommon',$,(#43));
#852=IFCRELDEFINESBYPROPERTIES('2RQ2eMD1iIYVtHQ0M3JH5G',#18,$,$,(#32),#848);
#853=IFCRELDEFINESBYPROPERTIES('0pWdQTvbfr9y23zcyUVQyw',#18,$,$,(#32),#849);
#854=IFCRELDEFINESBYPROPERTIES('304p74xfaoCASFQcWFxGrT',#18,$,$,(#32),#850);
#855=IFCRELDEFINESBYPROPERTIES('0gG6g5oc59$G4lrgZKbBxu',#18,$,$,(#32),#851);
#856=IFCRELASSOCIATESMATERIAL('1tcTgDzi$NmsvpnymIP5Hl',#18,$,$,(#72,#156,#199,#402,#692,#734),#84);
#857=IFCRELASSOCIATESMATERIAL('1IwMysXVzvPKXk$ivQsPfR',#18,$,$,(#246,#255,#304,#336,#342,#368),#247);
#858=IFCRELASSOCIATESMATERIAL('37wtioTxjYFvy3UeX2pk7u',#18,$,$,(#453,#460),#454);
#859=IFCRELASSOCIATESMATERIAL('3S3L2pyFWibV7E0vrDm3G3',#18,$,$,(#497,#504),#498);
#860=IFCRELASSOCIATESMATERIAL('1na_yXTQUokRl3J3Dfx2Yo',#18,$,$,(#542,#549,#581,#587),#543);
#861=IFCRELASSOCIATESMATERIAL('2uH39RJ6UuVFeOtP3XLNG8',#18,$,$,(#625,#626),#627);
#862=IFCRELASSOCIATESMATERIAL('0ie3A2pilPUKJVKf1YLNit',#18,$,$,(#777,#784),#778);
#863=IFCRELDEFINESBYTYPE('3U_7GKXk_L49kOImxXqS0r',#18,$,$,(#72,#156,#199,#402,#692,#734),#85);
#864=IFCRELDEFINESBYTYPE('3G4mTagf1ih4aNIBwvnoXu',#18,$,$,(#255,#304,#368),#246);
#865=IFCRELDEFINESBYTYPE('3dZZufZSd7EQ3bcJaTL7rH',#18,$,$,(#342),#336);
#866=IFCRELDEFINESBYTYPE('2bJCGvo6Fjqu15$KivW_ev',#18,$,$,(#460),#453);
#867=IFCRELDEFINESBYTYPE('1lAPUjlr6ttNVDvBOo3Cgk',#18,$,$,(#504),#497);
#868=IFCRELDEFINESBYTYPE('0XI$5u1mcFtIWp_rs2GKJm',#18,$,$,(#549),#542);
#869=IFCRELDEFINESBYTYPE('0fGfd1IC5fnPVfL_OFEVgU',#18,$,$,(#587),#581);
#870=IFCRELDEFINESBYTYPE('3cfyVPmb$qSzz9uFiTFDEQ',#18,$,$,(#625),#626);
#871=IFCRELDEFINESBYTYPE('0CHUgtuY2PFScQyPH6VC7w',#18,$,$,(#784),#777);
#872=IFCRELDEFINESBYPROPERTIES('3Ht_t2oKgCi5Vff5Fdx3Fj',#18,$,$,(#32,#42),#54);
#873=IFCRELDEFINESBYPROPERTIES('1z_e_aWt7n1xfUU$_hLQSx',#18,$,$,(#35),#826);
#874=IFCRELDEFINESBYPROPERTIES('0iP242aDLYnQqWPMVAsITi',#18,$,$,(#35),#827);
#875=IFCRELDEFINESBYPROPERTIES('1HMg9h0an4caHPJT7H28v3',#18,$,$,(#35),#828);
#876=IFCRELDEFINESBYPROPERTIES('3Mz1ZlGamYcpNBHXybHqpT',#18,$,$,(#35),#829);
#877=IFCRELDEFINESBYPROPERTIES('3MN_775z3NmhqAXrcH9hV1',#18,$,$,(#39),#839);
#878=IFCRELDEFINESBYPROPERTIES('3rHJ1Snux1OzoGF20UF_cP',#18,$,$,(#39),#840);
#879=IFCRELDEFINESBYPROPERTIES('2kIinhF2BeA9g$xAl27GYt',#18,$,$,(#39),#841);
#880=IFCRELDEFINESBYPROPERTIES('2IAa7FD0_2o5eMYkMHOXXV',#18,$,$,(#39),#842);
#881=IFCRELDEFINESBYPROPERTIES('1Y1269ndO0Ce8BZJbHTkV7',#18,$,$,(#72),#131);
#882=IFCRELDEFINESBYPROPERTIES('1m6nKq$N6OdwsK6UW84F2S',#18,$,$,(#72),#132);
#883=IFCRELDEFINESBYPROPERTIES('2gAVB1lSNsJAjmP2yfKsAe',#18,$,$,(#72),#133);
#884=IFCRELDEFINESBYPROPERTIES('3sHxOUM6c9JaWs4P3flm0A',#18,$,$,(#72),#134);
#885=IFCRELDEFINESBYPROPERTIES('1wqdse8fwzroIQSYYssp_c',#18,$,$,(#72),#135);
#886=IFCRELDEFINESBYPROPERTIES('2$i5UgEZkJQwZAprbf_am0',#18,$,$,(#72),#136);
#887=IFCRELDEFINESBYPROPERTIES('2Tu6DLdiQWkic0emLMSrsX',#18,$,$,(#156),#179);
#888=IFCRELDEFINESBYPROPERTIES('3WzEe$ptqwDpQ4Hni$3XyY',#18,$,$,(#156),#180);
#889=IFCRELDEFINESBYPROPERTIES('1O5E1L$8WVwWMZ1ifIa2jN',#18,$,$,(#156),#181);
#890=IFCRELDEFINESBYPROPERTIES('2JDV$IxMAzivEn_XfPMfm6',#18,$,$,(#156),#182);
#891=IFCRELDEFINESBYPROPERTIES('2zTigWJ0Fxd6m4rqwn9bO_',#18,$,$,(#156),#183);
#892=IFCRELDEFINESBYPROPERTIES('0Qu3GqqKvvpdmtXJMaoQdb',#18,$,$,(#156),#184);
#893=IFCRELDEFINESBYPROPERTIES('1xobT5_tusgRqjD0cG0QKW',#18,$,$,(#199),#222);
#894=IFCRELDEFINESBYPROPERTIES('1iLlQ2ypWLl9f8lqtKdGsc',#18,$,$,(#199),#223);
#895=IFCRELDEFINESBYPROPERTIES('2ZcJr41StJN__EuSqeiOJ5',#18,$,$,(#199),#224);
#896=IFCRELDEFINESBYPROPERTIES('1UrQi3Jo6dMH78xpSPzbtQ',#18,$,$,(#199),#225);
#897=IFCRELDEFINESBYPROPERTIES('2Ft1jKOWeaYOAgt9M$McmS',#18,$,$,(#199),#226);
#898=IFCRELDEFINESBYPROPERTIES('0maoW3lg2k8_vrCdXBGaUM',#18,$,$,(#199),#227);
#899=IFCRELDEFINESBYPROPERTIES('2RaWfNlauS4etZieHU84h5',#18,$,$,(#255),#289);
#900=IFCRELDEFINESBYPROPERTIES('0Bdypc7RR2wSe9A6GCtPB2',#18,$,$,(#255),#290);
#901=IFCRELDEFINESBYPROPERTIES('34E9A7U5u5nFDryTeL7D_1',#18,$,$,(#255),#291);
#902=IFCRELDEFINESBYPROPERTIES('0mUFzP7M5zt3UzGoj9nX5m',#18,$,$,(#255),#292);
#903=IFCRELDEFINESBYPROPERTIES('0dcHM8qSTCoN2TSGoec5j8',#18,$,$,(#304),#320);
#904=IFCRELDEFINESBYPROPERTIES('2rfXNN1YsGesqCYo0yVDiL',#18,$,$,(#304),#321);
#905=IFCRELDEFINESBYPROPERTIES('0JRnuv$XCD8Jr51_0oigoT',#18,$,$,(#304),#322);
#906=IFCRELDEFINESBYPROPERTIES('3Rwt_ZkijsSE3PUSHKsDKW',#18,$,$,(#304),#323);
#907=IFCRELDEFINESBYPROPERTIES('0aJ9Av5csBXPesr0dGukCf',#18,$,$,(#342),#358);
#908=IFCRELDEFINESBYPROPERTIES('0tNoQUj0dxNvwQv3LCadmc',#18,$,$,(#342),#359);
#909=IFCRELDEFINESBYPROPERTIES('0MMlqsLmcm9Lmoa8Pp_d9o',#18,$,$,(#342),#360);
#910=IFCRELDEFINESBYPROPERTIES('19KpJenTNZm1$L8zrJ4mTb',#18,$,$,(#342),#361);
#911=IFCRELDEFINESBYPROPERTIES('3XQYLGBY99KmAxqAUGVYK1',#18,$,$,(#368),#384);
#912=IFCRELDEFINESBYPROPERTIES('2jGqAyGybsNUWqHluLgZ6h',#18,$,$,(#368),#385);
#913=IFCRELDEFINESBYPROPERTIES('2f_5uuRlmqC$ba_mxefcDM',#18,$,$,(#368),#386);
#914=IFCRELDEFINESBYPROPERTIES('0teDU3sDeHz7YXF0QEJJ9t',#18,$,$,(#368),#387);
#915=IFCRELDEFINESBYPROPERTIES('37cmhA4xDwgsVg5Q5eKeJS',#18,$,$,(#402),#425);
#916=IFCRELDEFINESBYPROPERTIES('30y0czCGRN8YNr0mYjUESz',#18,$,$,(#402),#426);
#917=IFCRELDEFINESBYPROPERTIES('0dUlPa2xtnQC5AEb_n_JdZ',#18,$,$,(#402),#427);
#918=IFCRELDEFINESBYPROPERTIES('2JkjIuAzZhLEoaAqZP42j4',#18,$,$,(#402),#428);
#919=IFCRELDEFINESBYPROPERTIES('11I$e5CeZZILRyElrhFF4q',#18,$,$,(#402),#429);
#920=IFCRELDEFINESBYPROPERTIES('1zDrBbAXvRURc$l5vJa5z6',#18,$,$,(#402),#430);
#921=IFCRELDEFINESBYPROPERTIES('1t5Q_GwJVQMdAokJ4sLDQN',#18,$,$,(#460),#476);
#922=IFCRELDEFINESBYPROPERTIES('0y9FpfS7ihy85f45NXKTIk',#18,$,$,(#460),#477);
#923=IFCRELDEFINESBYPROPERTIES('3Uj7RXvAp0YgXq8nYO7Obj',#18,$,$,(#460),#478);
#924=IFCRELDEFINESBYPROPERTIES('21_X0U1hoLcRYJKudE8hOo',#18,$,$,(#460),#479);
#925=IFCRELDEFINESBYPROPERTIES('22AD547wki7qFbu9wx3Yyn',#18,$,$,(#504),#520);
#926=IFCRELDEFINESBYPROPERTIES('3M6inP2dmv1M$1BDPWvknL',#18,$,$,(#504),#521);
#927=IFCRELDEFINESBYPROPERTIES('3pEhqZjaFgl1xSLgB4wt4L',#18,$,$,(#504),#522);
#928=IFCRELDEFINESBYPROPERTIES('2SkrehUDr29DjXiSLR$RDP',#18,$,$,(#504),#523);
#929=IFCRELDEFINESBYPROPERTIES('0aDkEyFfmJ19ryfZtxi3ve',#18,$,$,(#549),#563);
#930=IFCRELDEFINESBYPROPERTIES('29KcY3ieh$9xrn7VdIY2aG',#18,$,$,(#549),#564);
#931=IFCRELDEFINESBYPROPERTIES('1zYkQJLwHbBXZhAL2aq3oe',#18,$,$,(#549),#565);
#932=IFCRELDEFINESBYPROPERTIES('2cmDEECVLL6yg7misteuFs',#18,$,$,(#549),#566);
#933=IFCRELDEFINESBYPROPERTIES('38q6U0SduDB1Qwoyp4Lf2r',#18,$,$,(#587),#601);
#934=IFCRELDEFINESBYPROPERTIES('1uim8aQocoGz24xrEV5AKd',#18,$,$,(#587),#602);
#935=IFCRELDEFINESBYPROPERTIES('3oKoyO2p$45xnqWrCygXNE',#18,$,$,(#587),#603);
#936=IFCRELDEFINESBYPROPERTIES('3IhCSQAwZHhoB69bS21YM9',#18,$,$,(#587),#604);
#937=IFCRELDEFINESBYPROPERTIES('3Z2VFjnptb1tl$eC2vuYL6',#18,$,$,(#625),#667);
#938=IFCRELDEFINESBYPROPERTIES('2_6TV9Sd0kdIayxdbEsNLg',#18,$,$,(#625),#668);
#939=IFCRELDEFINESBYPROPERTIES('01icOfXs1QftmCuPFaAaEw',#18,$,$,(#625),#669);
#940=IFCRELDEFINESBYPROPERTIES('0$gnGE2qzsROFCqPKQ_sLI',#18,$,$,(#625),#670);
#941=IFCRELDEFINESBYPROPERTIES('0TquDaZoOvDH3wePfkt_IX',#18,$,$,(#625),#671);
#942=IFCRELDEFINESBYPROPERTIES('3qoTQuT7CxGPYPkm7RKa4E',#18,$,$,(#625),#672);
#943=IFCRELDEFINESBYPROPERTIES('3Am2c2_R6DQ1mKe1O1KG7y',#18,$,$,(#692),#714);
#944=IFCRELDEFINESBYPROPERTIES('3sIZBINWP2MA5hFvOE3R8_',#18,$,$,(#692),#715);
#945=IFCRELDEFINESBYPROPERTIES('2NhUdRQrSCFgASVe$jDD4I',#18,$,$,(#692),#716);
#946=IFCRELDEFINESBYPROPERTIES('1Cf8yuKnV7bXT0Ag_uoXzu',#18,$,$,(#692),#717);
#947=IFCRELDEFINESBYPROPERTIES('0lp1QeLvrouCe0IygTTNOE',#18,$,$,(#692),#718);
#948=IFCRELDEFINESBYPROPERTIES('1WDWveH8neKi7VWrhIum9$',#18,$,$,(#692),#719);
#949=IFCRELDEFINESBYPROPERTIES('0oPDIARHXq5ulnOiEPaebm',#18,$,$,(#734),#756);
#950=IFCRELDEFINESBYPROPERTIES('05sKJTANt$ywNity3cXqd3',#18,$,$,(#734),#757);
#951=IFCRELDEFINESBYPROPERTIES('3ZWIY2SH6T33uu8KGMvblg',#18,$,$,(#734),#758);
#952=IFCRELDEFINESBYPROPERTIES('220admw2cc2qt1xPSZ8fXK',#18,$,$,(#734),#759);
#953=IFCRELDEFINESBYPROPERTIES('0rahdQJbEd7mgxLQ02sOE$',#18,$,$,(#734),#760);
#954=IFCRELDEFINESBYPROPERTIES('2smp5F46outxl0Z8isJBSm',#18,$,$,(#734),#761);
#955=IFCRELDEFINESBYPROPERTIES('0JaLO9IyvgVL0HK7_L9xFk',#18,$,$,(#784),#798);
#956=IFCRELDEFINESBYPROPERTIES('02p8DaBvkhPlTZEApsPKTQ',#18,$,$,(#784),#799);
#957=IFCRELDEFINESBYPROPERTIES('0LVZsZBCNbqmt4Qg$2bl5i',#18,$,$,(#784),#800);
#958=IFCRELDEFINESBYPROPERTIES('1KLVDgqsXjMGUy8lIF8AaB',#18,$,$,(#784),#801);
#959=IFCRELDEFINESBYPROPERTIES('3sESfqvFna$CT6e_wEi0ik',#18,$,$,(#35,#39),#830);
#960=IFCRELDEFINESBYPROPERTIES('2BmertWq1rlqJu5f49F1qT',#18,$,$,(#35,#39),#831);
#961=IFCRELDEFINESBYPROPERTIES('0l8S0BE8N4NJ_hg8_OwfXm',#18,$,$,(#35,#39),#832);
#962=IFCRELDEFINESBYPROPERTIES('0j1I013zJ2zR4ewNO7UIqv',#18,$,$,(#35,#39),#833);
#963=IFCPRESENTATIONLAYERASSIGNMENT('A-WALL-____-OTLN',$,(#60,#70,#147,#154,#190,#197,#393,#400,#683,#690,#725,#732),$);
#964=IFCPRESENTATIONLAYERASSIGNMENT('A-COLS-____-OTLN',$,(#243,#250,#299,#333,#338,#363),$);
#965=IFCPRESENTATIONLAYERASSIGNMENT('Q-CASE-____-OTLN',$,(#450,#456,#539,#545,#774,#780),$);
#966=IFCPRESENTATIONLAYERASSIGNMENT('I-FURN-____-OTLN',$,(#494,#500,#578,#583),$);
#967=IFCPRESENTATIONLAYERASSIGNMENT('A-FLOR-____-OTLN',$,(#620),$);
#968=IFCUNITASSIGNMENT((#19,#46,#77,#238));
ENDSEC;

END-ISO-10303-21;